<svg width="1440" height="540" preserveAspectRatio="none" fill="none" xmlns="http://www.w3.org/2000/svg">
<g clip-path="url(#clip0_9465_35401)">
<rect width="1440" height="540" fill="white"/>
<path d="M760 77.8125L860 20V120L760 177.812V77.8125Z" fill="#C15151"/>
<path d="M960 77.8125L860 20V120L960 177.812V77.8125Z" fill="#F29D31"/>
<path d="M1060 251.25L1160 193.438V293.438L1060 351.25V251.25Z" fill="#69717F"/>
<path d="M1260 251.25L1160 193.438V293.438L1260 351.25V251.25Z" fill="#2DB3C7"/>
<path d="M1160 -6.5625L1060 -64.375V35.625L1160 93.4375V-6.5625Z" fill="#F29D31"/>
<path d="M1360 93.4375L1260 35.625V135.625L1360 193.438V93.4375Z" fill="#F29D31"/>
<path d="M960 -22.1875L860 -80V20L960 77.8125V-22.1875Z" fill="#2DB3C7"/>
<path d="M1460 351.25L1360 293.438V393.438L1460 451.25V351.25Z" fill="#858B98"/>
<path d="M1460 451.25L1360 393.438V493.438L1460 551.25V451.25Z" fill="#2DB3C7"/>
<path d="M1460 251.25L1360 193.438V293.438L1460 351.25V251.25Z" fill="#E46F6F"/>
<path d="M1160 -6.5625L1260 -64.375V35.625L1160 93.4375V-6.5625Z" fill="#1999AC"/>
<path d="M1160 93.4375L1260 35.625V135.625L1160 193.438V93.4375Z" fill="#69717F"/>
<path d="M1360 -6.5625L1460 -64.375V35.625L1360 93.4375V-6.5625Z" fill="#1999AC"/>
<path d="M1360 93.4375L1460 35.625V135.625L1360 193.438V93.4375Z" fill="#69717F"/>
<path d="M1060 35.625L960 -22.1875V77.8125L1060 135.625V35.625Z" fill="#E46F6F"/>
</g>
<defs>
<clipPath id="clip0_9465_35401">
<rect width="1440" height="540" fill="white"/>
</clipPath>
</defs>
</svg>
