<svg width="1440" height="540" viewBox="0 0 1440 540" fill="none" xmlns="http://www.w3.org/2000/svg">
<g clip-path="url(#clip0_9465_35558)" filter="url(#filter0_b_9465_35558)">
<rect width="1440" height="540" fill="white" fill-opacity="0.92"/>
<path d="M679.962 215.577L629 186.155L578.038 215.577V274.423L629 303.845L679.962 274.423V215.577Z" stroke="#A9B0F5" stroke-width="2"/>
<path d="M629 197L587.431 221V269L629 293L670.569 269V221L629 197Z" fill="#A9B0F5"/>
<path opacity="0.5" d="M629 213L601.287 229V261L629 277L656.713 261V229L629 213Z" fill="#5962B7"/>
<path d="M835 150L807.287 166V198L835 214L862.713 198V166L835 150Z" fill="#FFA3A3"/>
<path opacity="0.5" d="M835 161L816.813 171.5V192.5L835 203L853.187 192.5V171.5L835 161Z" fill="#C15151"/>
<path d="M990 193L913.79 237V325L990 369L1066.21 325V237L990 193Z" fill="#BEC2CA"/>
<path opacity="0.5" d="M989.5 221L938.838 250.75V310.25L989.5 340L1040.16 310.25V250.75L989.5 221Z" fill="#69717F"/>
<path d="M1124 179L981.106 261.5V426.5L1124 509L1266.89 426.5V261.5L1124 179Z" fill="#FFA3A3"/>
<path opacity="0.5" d="M1124 234L1028.74 289V399L1124 454L1219.26 399V289L1124 234Z" fill="#C15151"/>
<path d="M1285 331L1243.43 355V403L1285 427L1326.57 403V355L1285 331Z" fill="#A9B0F5"/>
<path opacity="0.5" d="M1285 347L1257.29 363V395L1285 411L1312.71 395V363L1285 347Z" fill="#5962B7"/>
<path d="M1108 -38L1031.79 6V94L1108 138L1184.21 94V6L1108 -38Z" fill="#BEC2CA"/>
<path opacity="0.5" d="M1107.5 -10L1056.84 19.75V79.25L1107.5 109L1158.16 79.25V19.75L1107.5 -10Z" fill="#69717F"/>
<path d="M1542.41 -141.178L1371.5 -241.839L1200.59 -141.178V60.1784L1371.5 160.839L1542.41 60.1784V-141.178Z" stroke="#BEC2CA" stroke-width="2"/>
<path d="M1371.5 -211L1222.11 -125V47L1371.5 133L1520.89 47V-125L1371.5 -211Z" fill="#BEC2CA"/>
<path opacity="0.5" d="M1371.5 -155L1271.47 -97V19L1371.5 77L1471.53 19V-97L1371.5 -155Z" fill="#69717F"/>
<path d="M1512.59 153.321L1414 95.161L1315.41 153.321V269.679L1414 327.839L1512.59 269.679V153.321Z" stroke="#FFA3A3" stroke-width="2"/>
<path d="M1414 112L1327.4 162V262L1414 312L1500.6 262V162L1414 112Z" fill="#FFA3A3"/>
<path opacity="0.5" d="M1414 145L1355.98 178.5V245.5L1414 279L1472.02 245.5V178.5L1414 145Z" fill="#C15151"/>
<path d="M1363 96L1339.62 109.5V136.5L1363 150L1386.38 136.5V109.5L1363 96Z" fill="#FFCD78"/>
<path opacity="0.5" d="M1363 105L1347.41 114V132L1363 141L1378.59 132V114L1363 105Z" fill="#C97E19"/>
<path d="M1321 -10L1279.43 14V62L1321 86L1362.57 62V14L1321 -10Z" fill="#A9B0F5"/>
<path opacity="0.5" d="M1321 6L1293.29 22V54L1321 70L1348.71 54V22L1321 6Z" fill="#5962B7"/>
<path d="M756 296L686.718 336V416L756 456L825.282 416V336L756 296Z" fill="#FFCD78"/>
<path opacity="0.5" d="M756 323L710.101 349.5V402.5L756 429L801.899 402.5V349.5L756 323Z" fill="#C97E19"/>
<path d="M958.363 25.0774L910 -2.8453L861.637 25.0774V80.9226L910 108.845L958.363 80.9226V25.0774Z" stroke="#FFCD78" stroke-width="2"/>
<path d="M910 11L873.627 32V74L910 95L946.373 74V32L910 11Z" fill="#FFCD78"/>
<path opacity="0.5" d="M910 26L886.617 39.5V66.5L910 80L933.383 66.5V39.5L910 26Z" fill="#C97E19"/>
<path d="M788 195L764.617 208.5V235.5L788 249L811.383 235.5V208.5L788 195Z" fill="#FFCD78"/>
<path opacity="0.5" d="M788 204L772.412 213V231L788 240L803.588 231V213L788 204Z" fill="#C97E19"/>
<line y1="-1" x2="484.534" y2="-1" transform="matrix(-0.866025 -0.5 -0.5 0.866025 1235.67 457.531)" stroke="#BEC2CA" stroke-width="2"/>
<line y1="-1" x2="484.534" y2="-1" transform="matrix(-0.866025 -0.5 -0.5 0.866025 1235.67 481.758)" stroke="#BEC2CA" stroke-width="2"/>
<line y1="-1" x2="484.534" y2="-1" transform="matrix(-0.866025 -0.5 -0.5 0.866025 1235.67 505.984)" stroke="#BEC2CA" stroke-width="2"/>
</g>
<defs>
<filter id="filter0_b_9465_35558" x="-10" y="-10" width="1460" height="560" filterUnits="userSpaceOnUse" color-interpolation-filters="sRGB">
<feFlood flood-opacity="0" result="BackgroundImageFix"/>
<feGaussianBlur in="BackgroundImageFix" stdDeviation="5"/>
<feComposite in2="SourceAlpha" operator="in" result="effect1_backgroundBlur_9465_35558"/>
<feBlend mode="normal" in="SourceGraphic" in2="effect1_backgroundBlur_9465_35558" result="shape"/>
</filter>
<clipPath id="clip0_9465_35558">
<rect width="1440" height="540" fill="white"/>
</clipPath>
</defs>
</svg>
