<svg width="1440" height="540" viewBox="0 0 1440 540" fill="none" xmlns="http://www.w3.org/2000/svg">
<g clip-path="url(#clip0_9465_35550)">
<rect width="1440" height="540" fill="white"/>
<path d="M1495.38 0H0V289.734H1495.38V0Z" fill="white"/>
<path d="M423.644 540H727.479V486H684.904V432H352.039V378H551.371V324H810.695V270H711.997V216H636.522V162H725.544V108H729.415V54H522.342V0H1983.46V54V108V162V216V270V324V378V432V486V540H423.644Z" fill="#50CEE1"/>
<path d="M686.398 540H1063.9V486H1042.61V432H1056.16V378H754.155V324H684.462V270H614.77V216H622.513V162H870.31V108H781.258V54H912.901V0H1983.46V54V108V162V216V270V324V378V432V486V540H686.398Z" fill="#3DC1DE"/>
<path d="M1160.26 540H1061.71V486H1131.28V432H1160.26V378H1231.76V324H992.144V270H1110.02V216H918.713V162H1038.52V108H858.809V54H881.997V0H1983.46V54V108V162V216V270V324V378V432V486V540H1160.26Z" fill="#2DB5DB"/>
<path d="M1420.14 540H1427.88V486H1222.69V432H1364V378H1379.49V324H1071.69V270H1342.71V216H1249.79V162H1280.76V108H1404.65V54H1336.9V0H1983.46V54V108V162V216V270V324V378V432V486V540H1420.14Z" fill="#23A7D7"/>
<path d="M1344.08 540H1334.42V486H1369.19V432H1521.8V378H1436.8V324H1508.27V270H1469.64V216H1624.17V162H1448.39V108H1471.57V54H1485.09V0H1983.46V54V108V162V216V270V324V378V432V486V540H1344.08Z" fill="#249AD1"/>
</g>
<defs>
<clipPath id="clip0_9465_35550">
<rect width="1440" height="540" fill="white"/>
</clipPath>
</defs>
</svg>
