<svg width="1440" height="540" preserveAspectRatio="none" fill="none" xmlns="http://www.w3.org/2000/svg">
<rect width="1440" height="540" fill="white"/>
<path d="M0.000305176 132.54C25.2668 125.547 54.9676 134.624 78.7514 148.032C108.248 164.669 135.308 187.622 168.486 194.532C200.008 201.1 233.93 191.591 259.191 171.685C284.453 151.784 301.242 122.226 308.191 90.8894C314.823 60.9563 311.928 28.9112 300.647 0.464844H0.000305176V132.54Z" fill="url(#paint0_linear_9465_35541)"/>
<path d="M917.774 48.984C948.2 46.0105 977.419 29.8701 1007.71 33.955C1036.03 37.776 1060.62 61.0582 1065.89 89.0461C1069.61 108.859 1064.43 129.4 1067.03 149.389C1070.51 176.15 1088.04 199.766 1110.35 215.054C1132.66 230.343 1159.39 238.091 1186.15 242.19C1220.98 247.525 1257 247.002 1291.01 237.813C1326.86 228.124 1359.53 209.168 1394.95 198.001C1409.35 193.462 1424.76 190.406 1440 189.831V0.464844H818.665C839.53 32.8203 879.196 52.7586 917.774 48.984Z" fill="url(#paint1_linear_9465_35541)"/>
<path d="M931 109.608C931 142.081 957.412 168.398 989.999 168.398C1022.58 168.398 1049 142.081 1049 109.608C1049 77.1412 1022.58 50.8184 989.999 50.8184C957.412 50.8184 931 77.1412 931 109.608Z" fill="url(#paint2_linear_9465_35541)"/>
<path d="M273.234 37.6751C261.374 71.9095 270.424 111.495 292.76 140.065C315.097 168.639 349.354 186.633 385.07 193.38C419.839 199.945 457.714 195.926 487.18 176.394C513.902 158.682 533.681 128.775 564.883 121.256C593.49 114.362 622.329 128.562 650.839 135.858C687.295 145.189 729.713 141.781 757.23 116.194C779.767 95.236 788.605 61.5696 781.714 31.6319C779.053 20.0788 774.05 8.79228 766.181 0.00184631H291.344C285.165 12.5132 277.763 24.6035 273.234 37.6751Z" fill="url(#paint3_linear_9465_35541)"/>
<defs>
<linearGradient id="paint0_linear_9465_35541" x1="388.819" y1="175.367" x2="99.8448" y2="42.5155" gradientUnits="userSpaceOnUse">
<stop stop-color="#7FCC7E"/>
<stop offset="1" stop-color="#4CBBC7"/>
</linearGradient>
<linearGradient id="paint1_linear_9465_35541" x1="1186.48" y1="203.828" x2="1083.05" y2="-166.88" gradientUnits="userSpaceOnUse">
<stop stop-color="#7FCC7E"/>
<stop offset="1" stop-color="#4CBBC7"/>
</linearGradient>
<linearGradient id="paint2_linear_9465_35541" x1="1049" y1="109.608" x2="930.998" y2="109.608" gradientUnits="userSpaceOnUse">
<stop stop-color="#7FCC7E"/>
<stop offset="1" stop-color="#4CBBC7"/>
</linearGradient>
<linearGradient id="paint3_linear_9465_35541" x1="410.569" y1="247.812" x2="559.299" y2="1.56965" gradientUnits="userSpaceOnUse">
<stop stop-color="#7FCC7E"/>
<stop offset="1" stop-color="#4CBBC7"/>
</linearGradient>
</defs>
</svg>
