<svg width="1440" height="540" preserveAspectRatio="none" fill="none" xmlns="http://www.w3.org/2000/svg">
<g clip-path="url(#clip0_9465_35432)">
<rect width="1440" height="540" fill="white"/>
<path d="M458.923 76.1641L571.355 143.335V277.676L458.923 344.847L346.49 277.676V143.335L458.923 76.1641Z" fill="#2C8CC9"/>
<path d="M934.107 -124.617L1030.84 -66.8124V48.7973L934.107 106.602L837.373 48.7973V-66.8124L934.107 -124.617Z" fill="#2C8CC9"/>
<path d="M1362.62 -19.25L1450.87 33.4329V138.799L1362.62 191.482L1274.38 138.799V33.4329L1362.62 -19.25Z" fill="#2C8CC9"/>
<path d="M734.702 260.262L783.635 289.53V348.067L734.702 377.335L685.77 348.067V289.53L734.702 260.262Z" fill="#2C8CC9"/>
<path d="M1072.71 134.406L1181.74 199.528V329.772L1072.71 394.894L963.668 329.772V199.528L1072.71 134.406Z" fill="#2C8CC9"/>
<path d="M68.5909 46.6016L137.182 87.5771V169.528L68.5909 210.504L0 169.528V87.5771L68.5909 46.6016Z" fill="#2C8CC9"/>
</g>
<defs>
<clipPath id="clip0_9465_35432">
<rect width="1440" height="540" fill="white"/>
</clipPath>
</defs>
</svg>
