<svg width="1440" height="540" viewBox="0 0 1440 540" fill="none" xmlns="http://www.w3.org/2000/svg">
<g clip-path="url(#clip0_9465_35473)">
<rect width="1440" height="540" fill="white"/>
<path d="M458.923 73.3438L571.355 138.027V267.392L458.923 332.075L346.49 267.392V138.027L458.923 73.3438Z" stroke="#2C8CC9" stroke-width="2"/>
<path d="M934.107 -120L1030.84 -64.3361V46.9917L934.107 102.656L837.373 46.9917V-64.3361L934.107 -120Z" stroke="#2C8CC9" stroke-width="2"/>
<path d="M1362.62 -18.5352L1450.87 32.1965V133.66L1362.62 184.391L1274.38 133.66V32.1965L1362.62 -18.5352Z" stroke="#2C8CC9" stroke-width="2"/>
<path d="M734.702 250.625L783.635 278.809V335.178L734.702 363.362L685.77 335.178V278.809L734.702 250.625Z" stroke="#2C8CC9" stroke-width="2"/>
<path d="M1072.71 129.43L1181.74 192.14V317.56L1072.71 380.27L963.668 317.56V192.14L1072.71 129.43Z" stroke="#2C8CC9" stroke-width="2"/>
<path d="M68.5909 44.8789L137.182 84.3369V163.253L68.5909 202.711L0 163.253V84.3369L68.5909 44.8789Z" stroke="#2C8CC9" stroke-width="2"/>
</g>
<defs>
<clipPath id="clip0_9465_35473">
<rect width="1440" height="540" fill="white"/>
</clipPath>
</defs>
</svg>
