<svg width="160" height="120" viewBox="0 0 160 120" fill="none" xmlns="http://www.w3.org/2000/svg">
<g clip-path="url(#clip0_20707_171292)">
<rect width="160" height="120" fill="white"/>
<g style="mix-blend-mode:luminosity" opacity="0.6" clip-path="url(#clip1_20707_171292)" filter="url(#filter0_b_20707_171292)">
<rect width="316" height="120" transform="translate(-78)" fill="white" fill-opacity="0.92"/>
<g opacity="0.1">
<path d="M18.6012 16.4385H7.12739C6.77298 16.4397 6.4335 16.5812 6.18337 16.832C5.93324 17.0828 5.79285 17.4224 5.79297 17.7763V29.2362C5.79304 29.5897 5.93364 29.9287 6.18388 30.1786C6.43411 30.4285 6.7735 30.569 7.12739 30.5691H18.6012C18.9557 30.5692 19.2956 30.429 19.5467 30.1791C19.7978 29.9293 19.9396 29.5902 19.9408 29.2362V17.7763C19.9398 17.4218 19.7983 17.0821 19.5473 16.8315C19.2963 16.5808 18.9562 16.4395 18.6012 16.4385V16.4385Z" fill="white"/>
<path d="M18.6012 35.9661H7.12739C6.77297 35.9673 6.43347 36.1088 6.18334 36.3596C5.93321 36.6104 5.79283 36.95 5.79297 37.304V48.7639C5.79303 49.1173 5.93364 49.4563 6.18388 49.7062C6.43411 49.9562 6.7735 50.0966 7.12739 50.0967H18.6012C18.9556 50.0968 19.2956 49.9566 19.5467 49.7068C19.7979 49.457 19.9396 49.1179 19.9408 48.7639V37.304C19.9398 36.9495 19.7983 36.6098 19.5473 36.3591C19.2963 36.1084 18.9562 35.9671 18.6012 35.9661V35.9661Z" fill="white"/>
<path d="M18.6012 55.4949H7.12739C6.77297 55.4961 6.43348 55.6376 6.18335 55.8884C5.93322 56.1392 5.79284 56.4789 5.79297 56.8329V68.2876C5.79248 68.463 5.82665 68.6368 5.89348 68.799C5.9603 68.9612 6.05846 69.1086 6.1824 69.2329C6.30635 69.3572 6.45361 69.4558 6.61576 69.5232C6.77791 69.5905 6.95178 69.6253 7.12739 69.6255H18.6012C18.9564 69.6253 19.297 69.4843 19.5482 69.2334C19.7994 68.9826 19.9406 68.6424 19.9408 68.2876V56.8329C19.9398 56.4783 19.7983 56.1386 19.5473 55.8879C19.2963 55.6372 18.9562 55.4959 18.6012 55.4949V55.4949Z" fill="#5962B7"/>
<path d="M18.6012 75.0237H7.12739C6.77297 75.0249 6.43351 75.1665 6.18338 75.4173C5.93325 75.6681 5.79285 76.0077 5.79297 76.3617V87.8164C5.79248 87.9918 5.82662 88.1656 5.89344 88.3278C5.96027 88.49 6.05846 88.6375 6.1824 88.7618C6.30635 88.886 6.45361 88.9847 6.61576 89.052C6.77791 89.1194 6.95177 89.1542 7.12739 89.1544H18.6012C18.9565 89.1542 19.2971 89.0132 19.5483 88.7623C19.7994 88.5114 19.9407 88.1712 19.9408 87.8164V76.3617C19.9398 76.0071 19.7983 75.6674 19.5473 75.4167C19.2963 75.166 18.9562 75.0247 18.6012 75.0237V75.0237Z" fill="#D9DCE1"/>
<path d="M18.6012 94.5527H7.12739C6.95177 94.5529 6.77791 94.5877 6.61576 94.655C6.45361 94.7224 6.30635 94.821 6.1824 94.9453C6.05846 95.0696 5.96027 95.2171 5.89344 95.3793C5.82662 95.5415 5.79248 95.7153 5.79297 95.8907V107.345C5.79248 107.521 5.82662 107.695 5.89344 107.857C5.96027 108.019 6.05846 108.167 6.1824 108.291C6.30634 108.415 6.45361 108.514 6.61576 108.581C6.77791 108.648 6.95177 108.683 7.12739 108.683H18.6012C18.9565 108.683 19.2971 108.542 19.5483 108.291C19.7994 108.04 19.9406 107.7 19.9408 107.345V95.8907C19.9407 95.5359 19.7994 95.1957 19.5483 94.9448C19.2971 94.6939 18.9565 94.5529 18.6012 94.5527Z" fill="white"/>
<path d="M42.6969 16.4385H31.2231C30.8687 16.4397 30.5292 16.5812 30.2791 16.832C30.0289 17.0828 29.8886 17.4224 29.8887 17.7763V29.2362C29.8887 29.5897 30.0293 29.9287 30.2796 30.1786C30.5298 30.4285 30.8692 30.569 31.2231 30.5691H42.6969C43.0513 30.5692 43.3913 30.429 43.6425 30.1791C43.8936 29.9293 44.0353 29.5902 44.0365 29.2362V17.7763C44.0354 17.4218 43.894 17.0821 43.643 16.8315C43.392 16.5808 43.0518 16.4395 42.6969 16.4385V16.4385Z" fill="#5962B7"/>
<path d="M42.6969 35.9661H31.2231C30.8687 35.9673 30.5292 36.1088 30.279 36.3596C30.0289 36.6104 29.8885 36.95 29.8887 37.304V48.7639C29.8887 49.1173 30.0293 49.4563 30.2796 49.7062C30.5298 49.9562 30.8692 50.0966 31.2231 50.0967H42.6969C43.0513 50.0968 43.3913 49.9566 43.6425 49.7068C43.8936 49.457 44.0353 49.1179 44.0365 48.7639V37.304C44.0355 36.9495 43.894 36.6098 43.643 36.3591C43.392 36.1084 43.0519 35.9671 42.6969 35.9661Z" fill="#5962B7"/>
<path d="M42.6969 55.4949H31.2231C30.8687 55.4961 30.5292 55.6376 30.2791 55.8884C30.0289 56.1392 29.8885 56.4789 29.8887 56.8329V68.2876C29.8882 68.463 29.9223 68.6368 29.9891 68.799C30.056 68.9612 30.1542 69.1086 30.2781 69.2329C30.402 69.3572 30.5493 69.4558 30.7115 69.5232C30.8736 69.5905 31.0475 69.6253 31.2231 69.6255H42.6969C43.0521 69.6253 43.3927 69.4843 43.6439 69.2334C43.8951 68.9826 44.0363 68.6424 44.0365 68.2876V56.8329C44.0355 56.4783 43.894 56.1386 43.643 55.8879C43.392 55.6372 43.0519 55.4959 42.6969 55.4949V55.4949Z" fill="#D9DCE1"/>
<path d="M42.6969 75.0237H31.2231C30.8687 75.0249 30.5292 75.1665 30.2791 75.4173C30.029 75.6681 29.8886 76.0077 29.8887 76.3617V87.8164C29.8882 87.9918 29.9223 88.1656 29.9891 88.3278C30.056 88.49 30.1542 88.6375 30.2781 88.7618C30.402 88.886 30.5493 88.9847 30.7115 89.052C30.8736 89.1194 31.0475 89.1542 31.2231 89.1544H42.6969C43.0521 89.1542 43.3928 89.0132 43.644 88.7623C43.8952 88.5114 44.0363 88.1712 44.0365 87.8164V76.3617C44.0354 76.0071 43.894 75.6674 43.643 75.4167C43.392 75.166 43.0519 75.0247 42.6969 75.0237V75.0237Z" fill="white"/>
<path d="M42.6969 94.5527H31.2231C31.0475 94.5529 30.8736 94.5877 30.7115 94.655C30.5493 94.7224 30.402 94.821 30.2781 94.9453C30.1542 95.0696 30.056 95.2171 29.9891 95.3793C29.9223 95.5415 29.8882 95.7153 29.8887 95.8907V107.345C29.8882 107.521 29.9223 107.695 29.9891 107.857C30.056 108.019 30.1542 108.167 30.2781 108.291C30.402 108.415 30.5493 108.514 30.7115 108.581C30.8736 108.648 31.0475 108.683 31.2231 108.683H42.6969C43.0521 108.683 43.3928 108.542 43.644 108.291C43.8952 108.04 44.0363 107.7 44.0365 107.345V95.8907C44.0363 95.5359 43.8952 95.1957 43.644 94.9448C43.3928 94.6939 43.0521 94.5529 42.6969 94.5527Z" fill="#5962B7"/>
<path d="M66.7887 16.4385H55.3149C54.9605 16.4397 54.621 16.5812 54.3709 16.832C54.1207 17.0828 53.9804 17.4224 53.9805 17.7763V29.2362C53.9805 29.5897 54.1211 29.9287 54.3714 30.1786C54.6216 30.4285 54.961 30.569 55.3149 30.5691H66.7887C67.1431 30.5692 67.4832 30.429 67.7342 30.1791C67.9853 29.9293 68.127 29.5902 68.1283 29.2362V17.7763C68.1272 17.4218 67.9857 17.0821 67.7347 16.8315C67.4838 16.5808 67.1436 16.4395 66.7887 16.4385Z" fill="#5962B7"/>
<path d="M66.7887 35.9661H55.3149C54.9605 35.9673 54.621 36.1088 54.3708 36.3596C54.1207 36.6104 53.9803 36.95 53.9805 37.304V48.7639C53.9805 49.1173 54.1211 49.4563 54.3714 49.7062C54.6216 49.9562 54.961 50.0966 55.3149 50.0967H66.7887C67.1431 50.0968 67.4832 49.9566 67.7342 49.7068C67.9853 49.4569 68.127 49.1179 68.1283 48.7639V37.304C68.1272 36.9495 67.9857 36.6098 67.7347 36.3591C67.4838 36.1084 67.1436 35.9671 66.7887 35.9661V35.9661Z" fill="#5962B7"/>
<path d="M66.7887 55.4949H55.3149C54.9605 55.4961 54.621 55.6376 54.3708 55.8884C54.1207 56.1392 53.9803 56.4789 53.9805 56.8329V68.2876C53.98 68.463 54.0141 68.6368 54.0809 68.799C54.1478 68.9612 54.246 69.1086 54.3699 69.2329C54.4938 69.3572 54.6411 69.4558 54.8033 69.5232C54.9654 69.5905 55.1393 69.6253 55.3149 69.6255H66.7887C67.1439 69.6253 67.4845 69.4843 67.7357 69.2334C67.9869 68.9826 68.1281 68.6424 68.1283 68.2876V56.8329C68.1272 56.4783 67.9858 56.1386 67.7348 55.8879C67.4838 55.6372 67.1437 55.4959 66.7887 55.4949Z" fill="#D9DCE1"/>
<path d="M66.7887 75.0237H55.3149C54.9605 75.0249 54.621 75.1665 54.3709 75.4173C54.1208 75.6681 53.9804 76.0077 53.9805 76.3617V87.8164C53.98 87.9918 54.0141 88.1656 54.0809 88.3278C54.1478 88.49 54.246 88.6375 54.3699 88.7618C54.4938 88.886 54.6411 88.9847 54.8033 89.052C54.9654 89.1194 55.1393 89.1542 55.3149 89.1544H66.7887C67.1439 89.1542 67.4846 89.0132 67.7357 88.7623C67.9869 88.5114 68.1281 88.1712 68.1283 87.8164V76.3617C68.1272 76.0071 67.9857 75.6674 67.7348 75.4167C67.4838 75.166 67.1437 75.0247 66.7887 75.0237V75.0237Z" fill="#5962B7"/>
<path d="M66.7887 94.5527H55.3149C55.1393 94.5529 54.9654 94.5877 54.8033 94.655C54.6411 94.7224 54.4938 94.821 54.3699 94.9453C54.246 95.0696 54.1478 95.2171 54.0809 95.3793C54.0141 95.5415 53.98 95.7153 53.9805 95.8907V107.345C53.98 107.521 54.0141 107.695 54.0809 107.857C54.1478 108.019 54.246 108.167 54.3699 108.291C54.4938 108.415 54.6411 108.514 54.8032 108.581C54.9654 108.648 55.1393 108.683 55.3149 108.683H66.7887C67.1439 108.683 67.4846 108.542 67.7357 108.291C67.9869 108.04 68.1281 107.7 68.1283 107.345V95.8907C68.1281 95.5359 67.9869 95.1957 67.7357 94.9448C67.4846 94.6939 67.1439 94.5529 66.7887 94.5527V94.5527Z" fill="#5962B7"/>
<path d="M90.8805 16.4385H79.4067C79.0522 16.4397 78.7128 16.5812 78.4627 16.832C78.2125 17.0828 78.0721 17.4224 78.0723 17.7763V29.2362C78.0723 29.5897 78.2129 29.9287 78.4632 30.1786C78.7134 30.4285 79.0528 30.569 79.4067 30.5691H90.8805C91.2349 30.5692 91.5749 30.429 91.826 30.1791C92.0771 29.9293 92.2188 29.5902 92.22 29.2362V17.7763C92.219 17.4218 92.0775 17.0821 91.8265 16.8315C91.5756 16.5808 91.2354 16.4395 90.8805 16.4385V16.4385Z" fill="#D9DCE1"/>
<path d="M90.8805 35.9661H79.4067C79.0522 35.9673 78.7128 36.1088 78.4626 36.3596C78.2125 36.6104 78.0721 36.95 78.0723 37.304V48.7639C78.0723 49.1173 78.2129 49.4563 78.4632 49.7062C78.7134 49.9562 79.0528 50.0966 79.4067 50.0967H90.8805C91.2349 50.0968 91.5749 49.9566 91.826 49.7068C92.0771 49.4569 92.2188 49.1179 92.22 48.7639V37.304C92.219 36.9495 92.0775 36.6098 91.8265 36.3591C91.5756 36.1084 91.2354 35.9671 90.8805 35.9661V35.9661Z" fill="#5962B7"/>
<path d="M90.8805 55.4949H79.4067C79.0522 55.4961 78.7128 55.6376 78.4626 55.8884C78.2125 56.1392 78.0721 56.4789 78.0723 56.8329V68.2876C78.0718 68.463 78.1059 68.6368 78.1727 68.799C78.2396 68.9612 78.3378 69.1086 78.4617 69.2329C78.5856 69.3572 78.7329 69.4558 78.8951 69.5232C79.0572 69.5905 79.231 69.6253 79.4067 69.6255H90.8805C91.2357 69.6253 91.5763 69.4843 91.8275 69.2334C92.0787 68.9826 92.2199 68.6424 92.22 68.2876V56.8329C92.219 56.4783 92.0775 56.1386 91.8265 55.8879C91.5756 55.6372 91.2354 55.4959 90.8805 55.4949V55.4949Z" fill="#5962B7"/>
<path d="M90.8805 75.0237H79.4067C79.0522 75.0249 78.7128 75.1665 78.4626 75.4173C78.2125 75.6681 78.0722 76.0077 78.0723 76.3617V87.8164C78.0718 87.9918 78.1059 88.1656 78.1727 88.3278C78.2396 88.49 78.3378 88.6375 78.4617 88.7618C78.5856 88.886 78.7329 88.9847 78.895 89.052C79.0572 89.1194 79.231 89.1542 79.4067 89.1544H90.8805C91.2357 89.1542 91.5763 89.0132 91.8275 88.7623C92.0787 88.5114 92.2199 88.1712 92.22 87.8164V76.3617C92.219 76.0071 92.0775 75.6674 91.8265 75.4167C91.5756 75.166 91.2354 75.0247 90.8805 75.0237V75.0237Z" fill="#5962B7"/>
<path d="M90.8805 94.5527H79.4067C79.231 94.5529 79.0572 94.5877 78.895 94.655C78.7329 94.7224 78.5856 94.821 78.4617 94.9453C78.3378 95.0696 78.2396 95.2171 78.1727 95.3793C78.1059 95.5415 78.0718 95.7153 78.0723 95.8907V107.345C78.0718 107.521 78.1059 107.695 78.1727 107.857C78.2396 108.019 78.3378 108.167 78.4617 108.291C78.5856 108.415 78.7329 108.514 78.895 108.581C79.0572 108.648 79.231 108.683 79.4067 108.683H90.8805C91.2357 108.683 91.5763 108.542 91.8275 108.291C92.0787 108.04 92.2199 107.7 92.22 107.345V95.8907C92.2199 95.5359 92.0787 95.1957 91.8275 94.9448C91.5763 94.6939 91.2357 94.5529 90.8805 94.5527V94.5527Z" fill="#D9DCE1"/>
<path d="M114.972 16.4385H103.499C103.144 16.4397 102.805 16.5812 102.554 16.832C102.304 17.0828 102.164 17.4224 102.164 17.7763V29.2362C102.164 29.5897 102.305 29.9287 102.555 30.1786C102.805 30.4285 103.145 30.569 103.499 30.5691H114.972C115.327 30.5692 115.667 30.429 115.918 30.1791C116.169 29.9293 116.311 29.5902 116.312 29.2362V17.7763C116.311 17.4218 116.169 17.0821 115.918 16.8315C115.667 16.5808 115.327 16.4395 114.972 16.4385V16.4385Z" fill="#D9DCE1"/>
<path d="M114.972 35.9661H103.499C103.144 35.9673 102.805 36.1088 102.554 36.3596C102.304 36.6104 102.164 36.95 102.164 37.304V48.7639C102.164 49.1174 102.305 49.4563 102.555 49.7062C102.805 49.9562 103.145 50.0966 103.499 50.0967H114.972C115.327 50.0968 115.667 49.9566 115.918 49.7068C116.169 49.4569 116.311 49.1179 116.312 48.7639V37.304C116.311 36.9495 116.169 36.6098 115.918 36.3591C115.667 36.1084 115.327 35.9671 114.972 35.9661V35.9661Z" fill="#D9DCE1"/>
<path d="M114.972 55.4949H103.499C103.144 55.4961 102.805 55.6376 102.554 55.8884C102.304 56.1392 102.164 56.4789 102.164 56.8329V68.2876C102.164 68.463 102.198 68.6368 102.265 68.799C102.331 68.9612 102.43 69.1087 102.554 69.2329C102.677 69.3572 102.825 69.4558 102.987 69.5232C103.149 69.5905 103.323 69.6253 103.499 69.6255H114.972C115.328 69.6253 115.668 69.4843 115.919 69.2334C116.171 68.9826 116.312 68.6424 116.312 68.2876V56.8329C116.311 56.4783 116.169 56.1386 115.918 55.8879C115.667 55.6372 115.327 55.4959 114.972 55.4949V55.4949Z" fill="#5962B7"/>
<path d="M114.972 75.0237H103.499C103.144 75.0249 102.805 75.1665 102.555 75.4173C102.304 75.6681 102.164 76.0077 102.164 76.3617V87.8164C102.164 87.9918 102.198 88.1656 102.265 88.3278C102.331 88.49 102.43 88.6375 102.554 88.7618C102.677 88.886 102.825 88.9847 102.987 89.052C103.149 89.1194 103.323 89.1542 103.499 89.1544H114.972C115.328 89.1542 115.668 89.0132 115.919 88.7623C116.171 88.5114 116.312 88.1712 116.312 87.8164V76.3617C116.311 76.0071 116.169 75.6674 115.918 75.4167C115.667 75.166 115.327 75.0247 114.972 75.0237V75.0237Z" fill="#D9DCE1"/>
<path d="M114.972 94.5527H103.499C103.323 94.5529 103.149 94.5877 102.987 94.655C102.825 94.7224 102.677 94.8211 102.554 94.9453C102.43 95.0696 102.331 95.2171 102.265 95.3793C102.198 95.5415 102.164 95.7153 102.164 95.8907V107.345C102.164 107.521 102.198 107.695 102.265 107.857C102.331 108.019 102.43 108.167 102.554 108.291C102.677 108.415 102.825 108.514 102.987 108.581C103.149 108.648 103.323 108.683 103.499 108.683H114.972C115.328 108.683 115.668 108.542 115.919 108.291C116.171 108.04 116.312 107.7 116.312 107.345V95.8907C116.312 95.5359 116.171 95.1957 115.919 94.9448C115.668 94.6939 115.328 94.5529 114.972 94.5527V94.5527Z" fill="#D9DCE1"/>
</g>
<path d="M233.388 97.7789C233.171 98.195 232.945 98.6039 232.712 99.0105C223.765 114.578 202.954 124.246 167.856 119.129C147.927 116.085 139.44 127.249 131.222 138.684C131.082 138.881 130.941 139.078 130.798 139.276C122.192 151.267 113.672 163.291 92.3676 159.294C69.7823 155.727 55.8435 137.411 53.6867 117.857C53.6604 117.619 53.6367 117.379 53.6152 117.141C52.4035 104.463 56.1482 91.3351 65.7018 81.4246C71.4725 75.4397 79.6715 72.2607 88.1347 72.3605C90.6829 72.4079 93.23 72.2193 95.7433 71.797C96.298 71.6995 96.8361 71.5925 97.3597 71.4712C108.142 69.0103 113.11 61.6939 116.157 52.7654C116.229 52.5537 116.3 52.3421 116.369 52.1281C123.366 30.8352 120.131 0.949059 158.169 5.34555C192.207 7.85171 217.188 26.7027 229.441 48.4521C229.562 48.6708 229.684 48.8896 229.803 49.1083C233.171 55.1431 235.574 61.6663 236.926 68.442C237.002 68.8224 237.071 69.2029 237.135 69.5833C238.868 79.6841 237.733 89.5019 233.388 97.7789Z" fill="#2C8CC9"/>
<path d="M229.804 49.1084C227.361 52.0073 224.61 54.6312 221.598 56.9336C209.863 65.9216 195.001 70.796 180.338 71.8185C172.803 72.3476 165.231 71.8338 157.836 70.2919C150.314 68.7179 143.138 65.9454 136.189 62.7068C129.43 59.5563 122.872 56.0039 116.158 52.7654C116.23 52.5538 116.301 52.3422 116.37 52.1282C123.691 55.6473 130.861 59.5254 138.267 62.878C145.245 66.0381 152.468 68.6156 160.022 69.9947C167.559 71.3613 175.251 71.6622 182.871 70.8887C197.493 69.4193 212.368 64.0313 223.609 54.3918C225.72 52.5821 227.671 50.595 229.442 48.4521C229.563 48.6709 229.685 48.8897 229.804 49.1084Z" fill="white"/>
<path d="M179 0.223641C178.983 0.223641 178.966 0.224185 178.949 0.225273C160.905 1.35432 146.771 16.3968 146.771 34.471C146.771 52.5454 160.905 67.588 178.949 68.7167C179.057 68.7239 179.165 68.7088 179.266 68.6723C179.368 68.6359 179.461 68.5788 179.54 68.5047C179.618 68.4318 179.68 68.3436 179.723 68.2455C179.765 68.1474 179.787 68.0415 179.787 67.9347V1.0074C179.786 0.799342 179.703 0.599965 179.556 0.453026C179.408 0.306088 179.208 0.223589 179 0.223633L179 0.223641Z" fill="#7BE4F4"/>
<path d="M237.136 69.5832C233.87 75.3683 229.258 80.471 223.978 84.5156C212.244 93.5036 197.382 98.378 182.719 99.4004C175.184 99.9295 167.612 99.4158 160.217 97.8739C152.694 96.2998 145.519 93.5273 138.57 90.2888C131.495 86.9908 124.636 83.2506 117.591 79.8908C110.554 76.5334 103.322 73.6706 95.7441 71.7969C96.2989 71.6994 96.8369 71.5924 97.3606 71.4712C97.8558 71.5995 98.3494 71.7327 98.8414 71.8706C113.659 76.0079 126.736 84.1613 140.648 90.46C147.626 93.6201 154.849 96.1975 162.403 97.5766C169.939 98.9432 177.631 99.2442 185.252 98.4707C199.874 97.0012 214.748 91.6132 225.99 81.9738C230.439 78.175 234.147 73.5873 236.927 68.4419C237.003 68.8223 237.072 69.2028 237.136 69.5832Z" fill="white"/>
<path d="M90.0322 120.377C104.63 124.453 117.538 132.428 131.222 138.684C131.082 138.881 130.941 139.078 130.798 139.276C130.451 139.116 130.106 138.957 129.761 138.795C122.685 135.498 115.827 131.757 108.782 128.398C101.595 124.969 94.2054 122.056 86.4517 120.185C75.7338 117.606 64.6621 116.82 53.6867 117.857C53.6605 117.619 53.6367 117.379 53.6152 117.141C65.8502 115.988 78.1933 117.084 90.0322 120.377Z" fill="white"/>
<path d="M175.651 105.104H153.56C153.242 105.104 152.936 104.978 152.711 104.753C152.486 104.528 152.359 104.223 152.359 103.905C152.359 103.587 152.486 103.282 152.711 103.057C152.936 102.832 153.242 102.706 153.56 102.706H175.651C175.969 102.706 176.275 102.832 176.5 103.057C176.725 103.282 176.851 103.587 176.851 103.905C176.851 104.223 176.725 104.528 176.5 104.753C176.275 104.978 175.969 105.104 175.651 105.104V105.104Z" fill="#7BE4F4"/>
<path d="M146.957 106.304C146.458 106.304 145.971 106.156 145.556 105.879C145.141 105.603 144.818 105.209 144.627 104.749C144.437 104.289 144.387 103.783 144.484 103.294C144.581 102.806 144.821 102.357 145.174 102.005C145.527 101.653 145.976 101.413 146.465 101.316C146.954 101.219 147.461 101.268 147.922 101.459C148.382 101.65 148.776 101.972 149.053 102.386C149.33 102.801 149.478 103.287 149.478 103.786C149.477 104.453 149.211 105.093 148.739 105.565C148.266 106.037 147.625 106.303 146.957 106.304Z" fill="#3F3D56"/>
<path d="M175.651 112.299H153.56C153.242 112.299 152.936 112.173 152.711 111.948C152.486 111.723 152.359 111.418 152.359 111.1C152.359 110.782 152.486 110.477 152.711 110.252C152.936 110.027 153.242 109.901 153.56 109.901H175.651C175.969 109.901 176.275 110.027 176.5 110.252C176.725 110.477 176.851 110.782 176.851 111.1C176.851 111.418 176.725 111.723 176.5 111.948C176.275 112.173 175.969 112.299 175.651 112.299V112.299Z" fill="#7BE4F4"/>
<path d="M146.957 113.498C146.458 113.498 145.971 113.351 145.556 113.074C145.141 112.797 144.818 112.404 144.627 111.944C144.437 111.484 144.387 110.977 144.484 110.489C144.581 110 144.821 109.552 145.174 109.199C145.527 108.847 145.976 108.607 146.465 108.51C146.954 108.413 147.461 108.463 147.922 108.654C148.382 108.844 148.776 109.167 149.053 109.581C149.33 109.995 149.478 110.482 149.478 110.98C149.477 111.648 149.211 112.288 148.739 112.76C148.266 113.232 147.625 113.497 146.957 113.498Z" fill="#3F3D56"/>
<path d="M175.651 119.494H153.56C153.242 119.494 152.936 119.368 152.711 119.143C152.486 118.918 152.359 118.613 152.359 118.295C152.359 117.977 152.486 117.672 152.711 117.447C152.936 117.222 153.242 117.096 153.56 117.096H175.651C175.969 117.096 176.275 117.222 176.5 117.447C176.725 117.672 176.851 117.977 176.851 118.295C176.851 118.613 176.725 118.918 176.5 119.143C176.275 119.368 175.969 119.494 175.651 119.494V119.494Z" fill="#7BE4F4"/>
<path d="M146.957 120.693C146.458 120.693 145.971 120.545 145.556 120.269C145.141 119.992 144.818 119.599 144.627 119.139C144.437 118.678 144.387 118.172 144.484 117.684C144.581 117.195 144.821 116.746 145.174 116.394C145.527 116.042 145.976 115.802 146.465 115.705C146.954 115.608 147.461 115.658 147.922 115.848C148.382 116.039 148.776 116.362 149.053 116.776C149.33 117.19 149.478 117.677 149.478 118.175C149.477 118.843 149.211 119.483 148.739 119.955C148.266 120.427 147.625 120.692 146.957 120.693Z" fill="#3F3D56"/>
<path d="M129.708 26.5919C129.436 26.0444 129.332 25.4286 129.41 24.8222C129.488 24.2158 129.744 23.6462 130.147 23.1853C130.549 22.7245 131.079 22.3931 131.67 22.233C132.26 22.073 132.885 22.0915 133.465 22.2863C134.046 22.481 134.555 22.8433 134.929 23.3271C135.303 23.811 135.525 24.3948 135.567 25.0048C135.609 25.6147 135.469 26.2233 135.165 26.7537C134.86 27.2841 134.405 27.7124 133.857 27.9845V27.9845C133.122 28.3484 132.272 28.4061 131.494 28.1451C130.716 27.884 130.074 27.3254 129.708 26.5919V26.5919ZM134.825 24.0524C134.594 23.5891 134.231 23.2045 133.782 22.9472C133.333 22.6899 132.817 22.5715 132.3 22.6069C131.784 22.6423 131.289 22.83 130.879 23.1461C130.469 23.4623 130.162 23.8928 129.997 24.3831C129.832 24.8735 129.817 25.4017 129.952 25.901C130.088 26.4002 130.369 26.8481 130.759 27.188C131.149 27.5279 131.632 27.7446 132.146 27.8105C132.659 27.8765 133.181 27.7888 133.645 27.5586C134.266 27.2493 134.74 26.7064 134.961 26.0491C135.182 25.3918 135.133 24.6737 134.825 24.0524Z" fill="#CCCCCC"/>
<path d="M119.649 26.947C120.701 26.947 121.553 26.0954 121.553 25.0448C121.553 23.9942 120.701 23.1426 119.649 23.1426C118.597 23.1426 117.744 23.9942 117.744 25.0448C117.744 26.0954 118.597 26.947 119.649 26.947Z" fill="#CCCCCC"/>
<path d="M108.543 25.7426C109.096 25.7426 109.544 25.2952 109.544 24.7434C109.544 24.1915 109.096 23.7441 108.543 23.7441C107.991 23.7441 107.543 24.1915 107.543 24.7434C107.543 25.2952 107.991 25.7426 108.543 25.7426Z" fill="#CCCCCC"/>
</g>
<rect x="26.5" y="38.5" width="107" height="43.0001" rx="21.5" fill="white"/>
<rect x="26.5" y="38.5" width="107" height="43.0001" rx="21.5" stroke="#1999AC"/>
<path d="M47.0156 63H42L48.9844 48.9844V57H54L47.0156 71.0156V63Z" fill="#054D7B"/>
<path d="M67.44 65.504C67.356 65.504 67.272 65.492 67.188 65.468C67.104 65.456 67.02 65.444 66.936 65.432C66.72 65.372 66.57 65.246 66.486 65.054C66.378 64.814 66.378 64.526 66.486 64.19C66.606 63.842 66.798 63.398 67.062 62.858C67.11 62.762 67.158 62.654 67.206 62.534C67.266 62.414 67.32 62.3 67.368 62.192C67.212 62.252 67.044 62.354 66.864 62.498C66.696 62.63 66.522 62.768 66.342 62.912C66.222 62.996 66.09 63.032 65.946 63.02C65.79 62.996 65.664 62.93 65.568 62.822C65.484 62.702 65.454 62.57 65.478 62.426C65.49 62.282 65.55 62.156 65.658 62.048C65.826 61.928 66 61.796 66.18 61.652C66.372 61.508 66.564 61.388 66.756 61.292C67.248 61.04 67.698 60.974 68.106 61.094C68.298 61.13 68.442 61.25 68.538 61.454C68.634 61.646 68.628 61.886 68.52 62.174C68.424 62.462 68.256 62.852 68.016 63.344C67.956 63.488 67.89 63.632 67.818 63.776C67.758 63.92 67.698 64.058 67.638 64.19C67.626 64.238 67.608 64.28 67.584 64.316C67.572 64.352 67.56 64.388 67.548 64.424C67.8 64.388 68.166 64.262 68.646 64.046C69.138 63.818 69.798 63.374 70.626 62.714C71.07 62.366 71.472 62.03 71.832 61.706C72.192 61.37 72.48 61.094 72.696 60.878C72.912 60.662 73.02 60.554 73.02 60.554C73.164 60.386 73.338 60.332 73.542 60.392C73.638 60.404 73.716 60.446 73.776 60.518C73.836 60.578 73.884 60.638 73.92 60.698C74.004 60.866 74.01 61.064 73.938 61.292C73.878 61.508 73.746 61.862 73.542 62.354C73.47 62.51 73.398 62.666 73.326 62.822C73.266 62.978 73.206 63.122 73.146 63.254C73.134 63.302 73.122 63.344 73.11 63.38C73.11 63.404 73.104 63.428 73.092 63.452C73.32 63.416 73.56 63.32 73.812 63.164C74.076 62.996 74.328 62.81 74.568 62.606C74.82 62.402 75.03 62.228 75.198 62.084C75.318 61.976 75.45 61.928 75.594 61.94C75.738 61.952 75.864 62.012 75.972 62.12C76.068 62.24 76.11 62.372 76.098 62.516C76.098 62.66 76.038 62.786 75.918 62.894C75.546 63.218 75.162 63.524 74.766 63.812C74.382 64.1 73.992 64.316 73.596 64.46C73.212 64.592 72.822 64.61 72.426 64.514C72.234 64.43 72.096 64.31 72.012 64.154C71.94 63.986 71.916 63.8 71.94 63.596C71.976 63.392 72.048 63.14 72.156 62.84C72.024 62.96 71.886 63.074 71.742 63.182C71.61 63.29 71.466 63.41 71.31 63.542C69.654 64.85 68.364 65.504 67.44 65.504ZM77.8481 65.54C77.7881 65.54 77.7281 65.534 77.6681 65.522C77.6081 65.522 77.5421 65.516 77.4701 65.504C77.3261 65.456 77.2061 65.354 77.1101 65.198C77.0621 65.102 77.0381 64.97 77.0381 64.802C77.0381 64.634 77.0921 64.358 77.2001 63.974C77.3081 63.59 77.4821 63.02 77.7221 62.264C77.4581 62.36 77.1521 62.474 76.8041 62.606C76.4681 62.738 76.1201 62.87 75.7601 63.002C75.6281 63.05 75.4961 63.044 75.3641 62.984C75.2201 62.912 75.1181 62.804 75.0581 62.66C75.0101 62.528 75.0221 62.396 75.0941 62.264C75.1541 62.12 75.2561 62.018 75.4001 61.958C75.9161 61.766 76.3961 61.586 76.8401 61.418C77.2961 61.25 77.6681 61.112 77.9561 61.004C78.2441 60.896 78.3881 60.842 78.3881 60.842C78.5081 60.794 78.6221 60.788 78.7301 60.824C78.8861 60.86 79.0001 60.95 79.0721 61.094C79.1321 61.202 79.1501 61.298 79.1261 61.382C79.1141 61.466 79.0961 61.556 79.0721 61.652C79.0481 61.7 79.0301 61.754 79.0181 61.814C79.0061 61.862 78.9881 61.922 78.9641 61.994C78.8801 62.198 78.7901 62.45 78.6941 62.75C78.6101 63.038 78.5201 63.332 78.4241 63.632C78.3641 63.8 78.3161 63.944 78.2801 64.064C78.2441 64.184 78.2141 64.292 78.1901 64.388C78.4181 64.34 78.7481 64.202 79.1801 63.974C79.5521 63.77 79.9481 63.536 80.3681 63.272C80.8001 62.996 81.2381 62.708 81.6821 62.408C81.7781 62.348 81.8741 62.288 81.9701 62.228C82.0781 62.168 82.1741 62.102 82.2581 62.03C82.3901 61.946 82.5281 61.922 82.6721 61.958C82.8281 61.982 82.9481 62.06 83.0321 62.192C83.1161 62.312 83.1401 62.444 83.1041 62.588C83.0801 62.732 83.0021 62.846 82.8701 62.93C82.7741 63.002 82.6721 63.074 82.5641 63.146C82.4681 63.206 82.3661 63.272 82.2581 63.344C81.8021 63.644 81.3581 63.932 80.9261 64.208C80.4941 64.484 80.0861 64.724 79.7021 64.928C78.9221 65.336 78.3041 65.54 77.8481 65.54ZM88.9118 64.298C88.8278 64.298 88.7498 64.286 88.6778 64.262C88.4498 64.214 88.2878 64.076 88.1918 63.848C88.1198 63.644 88.1378 63.416 88.2458 63.164C88.3658 62.912 88.5218 62.63 88.7138 62.318C88.7858 62.21 88.8518 62.102 88.9118 61.994C88.9838 61.874 89.0438 61.766 89.0918 61.67C89.1158 61.634 89.1338 61.604 89.1458 61.58C89.1578 61.544 89.1698 61.514 89.1818 61.49C88.8218 61.43 88.4018 61.418 87.9218 61.454C87.4538 61.478 86.9258 61.568 86.3378 61.724C85.8218 61.856 85.2638 62.03 84.6638 62.246C84.0758 62.45 83.4518 62.696 82.7918 62.984C82.6598 63.032 82.5277 63.032 82.3957 62.984C82.2637 62.936 82.1677 62.846 82.1077 62.714C82.0357 62.582 82.0297 62.444 82.0897 62.3C82.1497 62.144 82.2457 62.042 82.3777 61.994C83.0498 61.694 83.6918 61.436 84.3038 61.22C84.9278 60.992 85.5158 60.812 86.0678 60.68C87.5438 60.308 88.7498 60.248 89.6858 60.5C89.9618 60.572 90.1538 60.74 90.2618 61.004C90.3698 61.268 90.3458 61.562 90.1898 61.886C90.0338 62.21 89.8478 62.546 89.6318 62.894C89.6198 62.918 89.6018 62.948 89.5778 62.984C89.5538 63.02 89.5298 63.062 89.5058 63.11C89.7818 63.05 90.1898 62.93 90.7298 62.75C91.2698 62.57 92.0138 62.306 92.9618 61.958C93.0938 61.91 93.2258 61.922 93.3578 61.994C93.5018 62.054 93.5978 62.156 93.6458 62.3C93.7058 62.432 93.7058 62.57 93.6458 62.714C93.5858 62.846 93.4778 62.942 93.3218 63.002C92.7698 63.194 92.2658 63.368 91.8098 63.524C91.3538 63.68 90.9458 63.812 90.5858 63.92C90.1058 64.064 89.7398 64.166 89.4878 64.226C89.2358 64.274 89.0438 64.298 88.9118 64.298ZM99.5114 64.298C99.4274 64.298 99.3494 64.286 99.2774 64.262C99.0494 64.214 98.8874 64.076 98.7914 63.848C98.7194 63.644 98.7374 63.416 98.8454 63.164C98.9654 62.912 99.1214 62.63 99.3134 62.318C99.3854 62.21 99.4514 62.102 99.5114 61.994C99.5834 61.874 99.6434 61.766 99.6914 61.67C99.7154 61.634 99.7334 61.604 99.7454 61.58C99.7574 61.544 99.7694 61.514 99.7814 61.49C99.4214 61.43 99.0014 61.418 98.5214 61.454C98.0534 61.478 97.5254 61.568 96.9374 61.724C96.4214 61.856 95.8634 62.03 95.2634 62.246C94.6754 62.45 94.0514 62.696 93.3914 62.984C93.2594 63.032 93.1274 63.032 92.9954 62.984C92.8634 62.936 92.7674 62.846 92.7074 62.714C92.6354 62.582 92.6294 62.444 92.6894 62.3C92.7494 62.144 92.8454 62.042 92.9774 61.994C93.6494 61.694 94.2914 61.436 94.9034 61.22C95.5274 60.992 96.1154 60.812 96.6674 60.68C98.1434 60.308 99.3494 60.248 100.285 60.5C100.561 60.572 100.753 60.74 100.861 61.004C100.969 61.268 100.945 61.562 100.789 61.886C100.633 62.21 100.447 62.546 100.231 62.894C100.219 62.918 100.201 62.948 100.177 62.984C100.153 63.02 100.129 63.062 100.105 63.11C100.381 63.05 100.789 62.93 101.329 62.75C101.869 62.57 102.613 62.306 103.561 61.958C103.693 61.91 103.825 61.922 103.957 61.994C104.101 62.054 104.197 62.156 104.245 62.3C104.305 62.432 104.305 62.57 104.245 62.714C104.185 62.846 104.077 62.942 103.921 63.002C103.369 63.194 102.865 63.368 102.409 63.524C101.953 63.68 101.545 63.812 101.185 63.92C100.705 64.064 100.339 64.166 100.087 64.226C99.8354 64.274 99.6434 64.298 99.5114 64.298ZM107.897 64.478C107.753 64.478 107.633 64.436 107.537 64.352C107.345 64.196 107.291 63.998 107.375 63.758C107.375 63.746 107.417 63.602 107.501 63.326C107.597 63.05 107.705 62.738 107.825 62.39C107.885 62.186 107.939 62.012 107.987 61.868C108.035 61.712 108.077 61.574 108.113 61.454C107.789 61.574 107.393 61.724 106.925 61.904C106.457 62.072 105.965 62.252 105.449 62.444C104.945 62.636 104.453 62.822 103.973 63.002C103.841 63.05 103.709 63.044 103.577 62.984C103.433 62.912 103.331 62.804 103.271 62.66C103.223 62.528 103.235 62.396 103.307 62.264C103.367 62.12 103.469 62.018 103.613 61.958C104.153 61.766 104.711 61.568 105.287 61.364C105.863 61.148 106.397 60.95 106.889 60.77C107.381 60.578 107.783 60.422 108.095 60.302C108.407 60.182 108.563 60.122 108.563 60.122C108.623 60.11 108.683 60.104 108.743 60.104C108.803 60.092 108.857 60.098 108.905 60.122C109.073 60.146 109.193 60.242 109.265 60.41C109.325 60.506 109.349 60.632 109.337 60.788C109.337 60.932 109.307 61.142 109.247 61.418C109.211 61.574 109.163 61.748 109.103 61.94C109.055 62.12 108.989 62.33 108.905 62.57C108.893 62.618 108.881 62.66 108.869 62.696C108.857 62.732 108.845 62.774 108.833 62.822C109.313 62.558 109.901 62.282 110.597 61.994C110.729 61.934 110.861 61.934 110.993 61.994C111.137 62.042 111.233 62.132 111.281 62.264C111.353 62.396 111.359 62.534 111.299 62.678C111.239 62.822 111.143 62.924 111.011 62.984C110.471 63.224 109.985 63.452 109.553 63.668C109.133 63.884 108.797 64.058 108.545 64.19C108.293 64.322 108.167 64.388 108.167 64.388C108.095 64.448 108.005 64.478 107.897 64.478ZM114.893 64.478C114.749 64.478 114.629 64.436 114.533 64.352C114.341 64.196 114.287 63.998 114.371 63.758C114.371 63.746 114.413 63.602 114.497 63.326C114.593 63.05 114.701 62.738 114.821 62.39C114.881 62.186 114.935 62.012 114.983 61.868C115.031 61.712 115.073 61.574 115.109 61.454C114.785 61.574 114.389 61.724 113.921 61.904C113.453 62.072 112.961 62.252 112.445 62.444C111.941 62.636 111.449 62.822 110.969 63.002C110.837 63.05 110.705 63.044 110.573 62.984C110.429 62.912 110.327 62.804 110.267 62.66C110.219 62.528 110.231 62.396 110.303 62.264C110.363 62.12 110.465 62.018 110.609 61.958C111.149 61.766 111.707 61.568 112.283 61.364C112.859 61.148 113.393 60.95 113.885 60.77C114.377 60.578 114.779 60.422 115.091 60.302C115.403 60.182 115.559 60.122 115.559 60.122C115.619 60.11 115.679 60.104 115.739 60.104C115.799 60.092 115.853 60.098 115.901 60.122C116.069 60.146 116.189 60.242 116.261 60.41C116.321 60.506 116.345 60.632 116.333 60.788C116.333 60.932 116.303 61.142 116.243 61.418C116.207 61.574 116.159 61.748 116.099 61.94C116.051 62.12 115.985 62.33 115.901 62.57C115.889 62.618 115.877 62.66 115.865 62.696C115.853 62.732 115.841 62.774 115.829 62.822C116.309 62.558 116.897 62.282 117.593 61.994C117.725 61.934 117.857 61.934 117.989 61.994C118.133 62.042 118.229 62.132 118.277 62.264C118.349 62.396 118.355 62.534 118.295 62.678C118.235 62.822 118.139 62.924 118.007 62.984C117.467 63.224 116.981 63.452 116.549 63.668C116.129 63.884 115.793 64.058 115.541 64.19C115.289 64.322 115.163 64.388 115.163 64.388C115.091 64.448 115.001 64.478 114.893 64.478Z" fill="#054D7B"/>
</g>
<defs>
<filter id="filter0_b_20707_171292" x="-88" y="-10" width="336" height="140" filterUnits="userSpaceOnUse" color-interpolation-filters="sRGB">
<feFlood flood-opacity="0" result="BackgroundImageFix"/>
<feGaussianBlur in="BackgroundImageFix" stdDeviation="5"/>
<feComposite in2="SourceAlpha" operator="in" result="effect1_backgroundBlur_20707_171292"/>
<feBlend mode="normal" in="SourceGraphic" in2="effect1_backgroundBlur_20707_171292" result="shape"/>
</filter>
<clipPath id="clip0_20707_171292">
<rect width="160" height="120" fill="white"/>
</clipPath>
<clipPath id="clip1_20707_171292">
<rect width="316" height="120" fill="white" transform="translate(-78)"/>
</clipPath>
</defs>
</svg>
