<svg width="1440" height="540" preserveAspectRatio="none" fill="none" xmlns="http://www.w3.org/2000/svg">
<g clip-path="url(#clip0_9465_35614)" filter="url(#filter0_b_9465_35614)">
<rect width="1440" height="540" fill="white" fill-opacity="0.92"/>
<g opacity="0.1">
<path d="M360.735 60.0547H318.888C317.591 60.0553 316.349 60.5704 315.432 61.4868C314.516 62.4033 314.001 63.6461 314 64.9422V106.808C314.001 107.449 314.128 108.083 314.374 108.675C314.62 109.267 314.98 109.804 315.434 110.256C315.888 110.708 316.427 111.067 317.019 111.311C317.612 111.554 318.247 111.679 318.888 111.677H360.735C362.028 111.678 363.268 111.165 364.185 110.253C365.101 109.34 365.618 108.101 365.623 106.808V64.9422C365.619 63.6471 365.102 62.406 364.187 61.4903C363.271 60.5745 362.03 60.0584 360.735 60.0547Z" fill="#5962B7"/>
<path d="M360.735 131.395H318.888C317.591 131.395 316.349 131.91 315.432 132.827C314.516 133.743 314.001 134.986 314 136.282V178.148C314.001 178.789 314.128 179.423 314.374 180.015C314.62 180.607 314.98 181.144 315.434 181.596C315.888 182.048 316.427 182.407 317.019 182.651C317.612 182.894 318.247 183.019 318.888 183.017H360.735C362.028 183.018 363.268 182.505 364.185 181.593C365.101 180.68 365.618 179.441 365.623 178.148V136.282C365.619 134.987 365.103 133.746 364.187 132.83C363.271 131.914 362.03 131.398 360.735 131.395Z" fill="#5962B7"/>
<path d="M360.735 202.738H318.888C317.591 202.739 316.349 203.254 315.432 204.171C314.516 205.087 314.001 206.33 314 207.626V249.473C313.999 250.115 314.124 250.752 314.369 251.345C314.615 251.939 314.975 252.478 315.429 252.932C315.883 253.386 316.422 253.746 317.016 253.991C317.609 254.237 318.245 254.362 318.888 254.361H360.735C362.031 254.36 363.274 253.845 364.19 252.929C365.107 252.012 365.622 250.769 365.623 249.473V207.626C365.619 206.331 365.103 205.09 364.187 204.174C363.271 203.258 362.03 202.742 360.735 202.738Z" fill="#D9DCE1"/>
<path d="M360.735 274.082H318.888C317.591 274.083 316.349 274.598 315.432 275.514C314.516 276.431 314.001 277.674 314 278.97V320.817C313.999 321.459 314.124 322.095 314.369 322.689C314.615 323.283 314.975 323.822 315.429 324.276C315.883 324.73 316.422 325.09 317.016 325.335C317.609 325.581 318.245 325.706 318.888 325.705H360.735C362.031 325.704 363.274 325.189 364.19 324.273C365.107 323.356 365.622 322.113 365.623 320.817V278.97C365.619 277.675 365.103 276.434 364.187 275.518C363.271 274.602 362.03 274.086 360.735 274.082Z" fill="#5962B7"/>
<path d="M360.735 345.426H318.888C318.245 345.425 317.609 345.55 317.016 345.795C316.422 346.04 315.883 346.4 315.429 346.855C314.975 347.309 314.615 347.848 314.369 348.442C314.124 349.035 313.999 349.671 314 350.314V392.161C313.999 392.803 314.124 393.439 314.369 394.033C314.615 394.626 314.975 395.166 315.429 395.62C315.883 396.074 316.422 396.434 317.016 396.679C317.609 396.924 318.245 397.05 318.888 397.049H360.735C362.031 397.048 363.274 396.533 364.19 395.616C365.107 394.7 365.622 393.457 365.623 392.161V350.314C365.622 349.017 365.107 347.774 364.19 346.858C363.274 345.941 362.031 345.426 360.735 345.426Z" fill="#5962B7"/>
<path d="M448.635 60.0547H406.788C405.492 60.0553 404.249 60.5704 403.333 61.4868C402.416 62.4033 401.901 63.6461 401.9 64.9422V106.808C401.901 107.449 402.028 108.083 402.274 108.675C402.52 109.267 402.881 109.804 403.335 110.256C403.789 110.708 404.327 111.067 404.92 111.311C405.512 111.554 406.147 111.679 406.788 111.677H448.635C449.928 111.678 451.169 111.165 452.085 110.253C453.002 109.34 453.519 108.101 453.523 106.808V64.9422C453.519 63.6471 453.003 62.406 452.087 61.4903C451.171 60.5745 449.93 60.0584 448.635 60.0547Z" fill="#5962B7"/>
<path d="M448.635 131.395H406.788C405.492 131.395 404.249 131.91 403.333 132.827C402.416 133.743 401.901 134.986 401.9 136.282V178.148C401.901 178.789 402.028 179.423 402.274 180.015C402.52 180.607 402.881 181.144 403.335 181.596C403.789 182.048 404.327 182.407 404.92 182.651C405.512 182.894 406.147 183.019 406.788 183.017H448.635C449.928 183.018 451.169 182.505 452.085 181.593C453.002 180.68 453.519 179.441 453.523 178.148V136.282C453.519 134.987 453.003 133.746 452.087 132.83C451.171 131.914 449.93 131.398 448.635 131.395Z" fill="white"/>
<path d="M448.635 202.738H406.788C405.492 202.739 404.249 203.254 403.333 204.171C402.416 205.087 401.901 206.33 401.9 207.626V249.473C401.899 250.116 402.025 250.752 402.27 251.345C402.515 251.939 402.875 252.478 403.329 252.932C403.783 253.386 404.323 253.746 404.916 253.991C405.51 254.237 406.146 254.362 406.788 254.361H448.635C449.931 254.36 451.174 253.845 452.091 252.929C453.007 252.012 453.522 250.769 453.523 249.473V207.626C453.519 206.331 453.003 205.09 452.087 204.174C451.171 203.258 449.93 202.742 448.635 202.738Z" fill="white"/>
<path d="M448.635 274.082H406.788C405.492 274.083 404.249 274.598 403.333 275.514C402.416 276.431 401.901 277.674 401.9 278.97V320.817C401.899 321.459 402.025 322.095 402.27 322.689C402.515 323.283 402.875 323.822 403.329 324.276C403.783 324.73 404.323 325.09 404.916 325.335C405.51 325.581 406.146 325.706 406.788 325.705H448.635C449.931 325.704 451.174 325.189 452.091 324.273C453.007 323.356 453.523 322.113 453.523 320.817V278.97C453.519 277.675 453.003 276.434 452.087 275.518C451.171 274.602 449.93 274.086 448.635 274.082Z" fill="#D9DCE1"/>
<path d="M448.635 345.426H406.788C406.146 345.425 405.51 345.55 404.916 345.795C404.323 346.04 403.783 346.4 403.329 346.855C402.875 347.309 402.515 347.848 402.27 348.442C402.025 349.035 401.899 349.671 401.9 350.314V392.161C401.899 392.803 402.025 393.439 402.27 394.033C402.515 394.626 402.875 395.166 403.329 395.62C403.783 396.074 404.323 396.434 404.916 396.679C405.51 396.924 406.146 397.05 406.788 397.049H448.635C449.931 397.048 451.174 396.533 452.091 395.616C453.007 394.7 453.523 393.457 453.523 392.161V350.314C453.523 349.017 453.007 347.774 452.091 346.858C451.174 345.941 449.931 345.426 448.635 345.426Z" fill="#5962B7"/>
<path d="M536.532 60.0547H494.666C493.373 60.0592 492.134 60.5761 491.221 61.4923C490.309 62.4084 489.796 63.649 489.797 64.9422V106.808C489.797 108.099 490.31 109.338 491.223 110.251C492.136 111.164 493.375 111.677 494.666 111.677H536.532C537.825 111.678 539.066 111.165 539.982 110.253C540.898 109.34 541.415 108.101 541.42 106.808V64.9422C541.416 63.6471 540.9 62.406 539.984 61.4903C539.068 60.5745 537.827 60.0584 536.532 60.0547Z" fill="white"/>
<path d="M536.532 131.395H494.666C493.373 131.399 492.134 131.916 491.221 132.832C490.309 133.748 489.796 134.989 489.797 136.282V178.148C489.797 179.439 490.31 180.678 491.223 181.591C492.136 182.504 493.375 183.017 494.666 183.017H536.532C537.825 183.018 539.066 182.505 539.982 181.593C540.898 180.68 541.415 179.441 541.42 178.148V136.282C541.416 134.987 540.9 133.746 539.984 132.83C539.068 131.914 537.827 131.398 536.532 131.395Z" fill="white"/>
<path d="M536.532 202.738H494.666C493.373 202.743 492.134 203.26 491.221 204.176C490.309 205.092 489.796 206.333 489.797 207.626V249.473C489.795 250.114 489.92 250.749 490.164 251.342C490.407 251.934 490.766 252.473 491.218 252.927C491.67 253.381 492.207 253.741 492.799 253.987C493.391 254.233 494.025 254.36 494.666 254.361H536.532C537.828 254.36 539.071 253.845 539.987 252.929C540.904 252.012 541.419 250.769 541.42 249.473V207.626C541.416 206.331 540.9 205.09 539.984 204.174C539.068 203.258 537.827 202.742 536.532 202.738Z" fill="white"/>
<path d="M536.532 274.082H494.666C493.373 274.087 492.134 274.604 491.221 275.52C490.309 276.436 489.796 277.677 489.797 278.97V320.817C489.795 321.458 489.92 322.093 490.163 322.685C490.407 323.278 490.766 323.817 491.218 324.271C491.67 324.725 492.207 325.085 492.799 325.331C493.391 325.577 494.025 325.704 494.666 325.705H536.532C537.828 325.704 539.071 325.189 539.987 324.273C540.904 323.356 541.419 322.113 541.42 320.817V278.97C541.416 277.675 540.9 276.434 539.984 275.518C539.068 274.602 537.827 274.086 536.532 274.082Z" fill="#5962B7"/>
<path d="M536.532 345.426H494.666C494.025 345.426 493.391 345.553 492.799 345.8C492.207 346.046 491.67 346.406 491.218 346.86C490.766 347.314 490.407 347.853 490.163 348.445C489.92 349.038 489.795 349.673 489.797 350.314V392.161C489.795 392.801 489.92 393.436 490.163 394.029C490.407 394.622 490.766 395.16 491.218 395.614C491.67 396.068 492.207 396.429 492.799 396.675C493.391 396.921 494.025 397.048 494.666 397.049H536.532C537.828 397.048 539.071 396.533 539.987 395.616C540.904 394.7 541.419 393.457 541.42 392.161V350.314C541.419 349.017 540.904 347.774 539.987 346.858C539.071 345.941 537.828 345.426 536.532 345.426Z" fill="#D9DCE1"/>
<path d="M624.442 60.0547H582.576C581.283 60.0592 580.044 60.5761 579.132 61.4923C578.219 62.4084 577.707 63.649 577.707 64.9422V106.808C577.707 108.099 578.22 109.338 579.133 110.251C580.046 111.164 581.285 111.677 582.576 111.677H624.442C625.735 111.678 626.976 111.165 627.892 110.253C628.808 109.34 629.325 108.101 629.33 106.808V64.9422C629.326 63.6471 628.81 62.4061 627.894 61.4903C626.978 60.5746 625.737 60.0585 624.442 60.0547Z" fill="white"/>
<path d="M624.442 131.395H582.576C581.283 131.399 580.044 131.916 579.131 132.832C578.219 133.748 577.707 134.989 577.707 136.282V178.148C577.707 179.439 578.22 180.678 579.133 181.591C580.046 182.504 581.285 183.017 582.576 183.017H624.442C625.735 183.018 626.976 182.505 627.892 181.593C628.808 180.68 629.325 179.441 629.33 178.148V136.282C629.326 134.987 628.81 133.746 627.894 132.83C626.978 131.914 625.737 131.398 624.442 131.395Z" fill="white"/>
<path d="M624.442 202.738H582.576C581.283 202.743 580.044 203.26 579.131 204.176C578.219 205.092 577.707 206.333 577.707 207.626V249.473C577.705 250.114 577.83 250.749 578.074 251.342C578.318 251.934 578.676 252.473 579.128 252.927C579.58 253.381 580.118 253.741 580.709 253.987C581.301 254.233 581.935 254.36 582.576 254.361H624.442C625.738 254.36 626.981 253.845 627.897 252.929C628.814 252.012 629.329 250.769 629.33 249.473V207.626C629.326 206.331 628.81 205.09 627.894 204.174C626.978 203.258 625.737 202.742 624.442 202.738Z" fill="#5962B7"/>
<path d="M624.442 274.082H582.576C581.283 274.087 580.044 274.604 579.132 275.52C578.219 276.436 577.707 277.677 577.707 278.97V320.817C577.705 321.458 577.83 322.093 578.074 322.685C578.317 323.278 578.676 323.817 579.128 324.271C579.58 324.725 580.118 325.085 580.709 325.331C581.301 325.577 581.935 325.704 582.576 325.705H624.442C625.738 325.704 626.981 325.189 627.897 324.273C628.814 323.356 629.329 322.113 629.33 320.817V278.97C629.326 277.675 628.81 276.434 627.894 275.518C626.978 274.602 625.737 274.086 624.442 274.082Z" fill="#D9DCE1"/>
<path d="M624.442 345.426H582.576C581.935 345.426 581.301 345.553 580.709 345.8C580.118 346.046 579.58 346.406 579.128 346.86C578.676 347.314 578.317 347.853 578.074 348.445C577.83 349.038 577.705 349.673 577.707 350.314V392.161C577.705 392.801 577.83 393.436 578.074 394.029C578.317 394.622 578.676 395.16 579.128 395.614C579.58 396.068 580.118 396.429 580.709 396.675C581.301 396.921 581.935 397.048 582.576 397.049H624.442C625.738 397.048 626.981 396.533 627.897 395.616C628.814 394.7 629.329 393.457 629.33 392.161V350.314C629.329 349.017 628.814 347.775 627.897 346.858C626.981 345.942 625.738 345.426 624.442 345.426Z" fill="white"/>
<path d="M712.362 60.0547H670.496C669.203 60.0592 667.964 60.5761 667.051 61.4923C666.139 62.4084 665.627 63.649 665.627 64.9422V106.808C665.627 108.099 666.14 109.338 667.053 110.251C667.966 111.164 669.205 111.677 670.496 111.677H712.362C713.655 111.678 714.896 111.165 715.812 110.253C716.728 109.34 717.245 108.101 717.25 106.808V64.9422C717.246 63.6471 716.73 62.4061 715.814 61.4903C714.898 60.5746 713.657 60.0585 712.362 60.0547Z" fill="#5962B7"/>
<path d="M712.362 131.395H670.496C669.203 131.399 667.964 131.916 667.051 132.832C666.139 133.748 665.626 134.989 665.627 136.282V178.148C665.627 179.439 666.14 180.678 667.053 181.591C667.966 182.504 669.205 183.017 670.496 183.017H712.362C713.655 183.018 714.896 182.505 715.812 181.593C716.728 180.68 717.245 179.441 717.25 178.148V136.282C717.246 134.987 716.73 133.746 715.814 132.83C714.898 131.914 713.657 131.398 712.362 131.395Z" fill="#5962B7"/>
<path d="M712.362 202.738H670.496C669.203 202.743 667.964 203.26 667.051 204.176C666.139 205.092 665.626 206.333 665.627 207.626V249.473C665.625 250.114 665.75 250.749 665.994 251.342C666.237 251.934 666.596 252.473 667.048 252.927C667.5 253.381 668.038 253.741 668.629 253.987C669.221 254.233 669.855 254.36 670.496 254.361H712.362C713.658 254.36 714.901 253.845 715.817 252.929C716.734 252.012 717.249 250.769 717.25 249.473V207.626C717.246 206.331 716.73 205.09 715.814 204.174C714.898 203.258 713.657 202.742 712.362 202.738Z" fill="#D9DCE1"/>
<path d="M712.362 274.082H670.496C669.203 274.087 667.964 274.604 667.051 275.52C666.139 276.436 665.627 277.677 665.627 278.97V320.817C665.625 321.458 665.75 322.093 665.994 322.685C666.237 323.278 666.596 323.817 667.048 324.271C667.5 324.725 668.038 325.085 668.629 325.331C669.221 325.577 669.855 325.704 670.496 325.705H712.362C713.658 325.704 714.901 325.189 715.817 324.273C716.734 323.356 717.249 322.113 717.25 320.817V278.97C717.246 277.675 716.73 276.434 715.814 275.518C714.898 274.602 713.657 274.086 712.362 274.082Z" fill="white"/>
<path d="M712.362 345.426H670.496C669.855 345.426 669.221 345.553 668.629 345.8C668.038 346.046 667.5 346.406 667.048 346.86C666.596 347.314 666.237 347.853 665.994 348.445C665.75 349.038 665.625 349.673 665.627 350.314V392.161C665.625 392.801 665.75 393.436 665.994 394.029C666.237 394.622 666.596 395.16 667.048 395.614C667.5 396.068 668.038 396.429 668.629 396.675C669.221 396.921 669.855 397.048 670.496 397.049H712.362C713.658 397.048 714.901 396.533 715.817 395.616C716.734 394.7 717.249 393.457 717.25 392.161V350.314C717.249 349.017 716.734 347.775 715.817 346.858C714.901 345.942 713.658 345.426 712.362 345.426Z" fill="#5962B7"/>
<path d="M800.262 60.0547H758.396C757.103 60.0592 755.865 60.5761 754.952 61.4923C754.039 62.4084 753.527 63.649 753.527 64.9422V106.808C753.528 108.099 754.041 109.338 754.954 110.251C755.867 111.164 757.105 111.677 758.396 111.677H800.262C801.555 111.678 802.796 111.165 803.712 110.253C804.628 109.34 805.145 108.101 805.15 106.808V64.9422C805.146 63.6471 804.63 62.4061 803.714 61.4903C802.798 60.5746 801.557 60.0585 800.262 60.0547Z" fill="#5962B7"/>
<path d="M800.262 131.395H758.396C757.103 131.399 755.864 131.916 754.952 132.832C754.039 133.748 753.527 134.989 753.527 136.282V178.148C753.528 179.439 754.041 180.678 754.954 181.591C755.867 182.504 757.105 183.017 758.396 183.017H800.262C801.555 183.018 802.796 182.505 803.712 181.593C804.628 180.68 805.145 179.441 805.15 178.148V136.282C805.146 134.987 804.63 133.746 803.714 132.83C802.798 131.914 801.557 131.398 800.262 131.395Z" fill="#5962B7"/>
<path d="M800.262 202.738H758.396C757.103 202.743 755.864 203.26 754.952 204.176C754.039 205.092 753.527 206.333 753.527 207.626V249.473C753.526 250.114 753.65 250.749 753.894 251.342C754.138 251.934 754.496 252.473 754.948 252.927C755.401 253.381 755.938 253.741 756.53 253.987C757.121 254.233 757.756 254.36 758.396 254.361H800.262C801.558 254.36 802.801 253.845 803.718 252.929C804.634 252.012 805.149 250.769 805.15 249.473V207.626C805.146 206.331 804.63 205.09 803.714 204.174C802.798 203.258 801.557 202.742 800.262 202.738Z" fill="#D9DCE1"/>
<path d="M800.262 274.082H758.396C757.103 274.087 755.865 274.604 754.952 275.52C754.039 276.436 753.527 277.677 753.527 278.97V320.817C753.526 321.458 753.65 322.093 753.894 322.685C754.138 323.278 754.496 323.817 754.948 324.271C755.401 324.725 755.938 325.085 756.53 325.331C757.121 325.577 757.756 325.704 758.396 325.705H800.262C801.558 325.704 802.801 325.189 803.718 324.273C804.634 323.356 805.149 322.113 805.15 320.817V278.97C805.146 277.675 804.63 276.434 803.714 275.518C802.798 274.602 801.557 274.086 800.262 274.082Z" fill="#5962B7"/>
<path d="M800.262 345.426H758.396C757.756 345.426 757.121 345.553 756.53 345.8C755.938 346.046 755.401 346.406 754.948 346.86C754.496 347.314 754.138 347.853 753.894 348.445C753.65 349.038 753.526 349.673 753.527 350.314V392.161C753.526 392.801 753.65 393.436 753.894 394.029C754.138 394.622 754.496 395.16 754.948 395.614C755.401 396.068 755.938 396.429 756.529 396.675C757.121 396.921 757.756 397.048 758.396 397.049H800.262C801.558 397.048 802.801 396.533 803.718 395.616C804.634 394.7 805.149 393.457 805.15 392.161V350.314C805.149 349.017 804.634 347.775 803.718 346.858C802.801 345.942 801.558 345.426 800.262 345.426Z" fill="#5962B7"/>
<path d="M888.174 60.0547H846.308C845.015 60.0592 843.777 60.5761 842.864 61.4923C841.951 62.4084 841.439 63.649 841.439 64.9422V106.808C841.44 108.099 841.953 109.338 842.866 110.251C843.779 111.164 845.017 111.677 846.308 111.677H888.174C889.467 111.678 890.708 111.165 891.624 110.253C892.54 109.34 893.057 108.101 893.062 106.808V64.9422C893.058 63.6471 892.542 62.4061 891.626 61.4903C890.71 60.5746 889.469 60.0585 888.174 60.0547Z" fill="#D9DCE1"/>
<path d="M888.174 131.395H846.308C845.015 131.399 843.777 131.916 842.864 132.832C841.951 133.748 841.439 134.989 841.439 136.282V178.148C841.44 179.439 841.953 180.678 842.866 181.591C843.779 182.504 845.017 183.017 846.308 183.017H888.174C889.467 183.018 890.708 182.505 891.624 181.593C892.54 180.68 893.057 179.441 893.062 178.148V136.282C893.058 134.987 892.542 133.746 891.626 132.83C890.71 131.914 889.469 131.398 888.174 131.395Z" fill="#5962B7"/>
<path d="M888.174 202.738H846.308C845.015 202.743 843.777 203.26 842.864 204.176C841.951 205.092 841.439 206.333 841.439 207.626V249.473C841.438 250.114 841.562 250.749 841.806 251.342C842.05 251.934 842.408 252.473 842.86 252.927C843.313 253.381 843.85 253.741 844.442 253.987C845.033 254.233 845.668 254.36 846.308 254.361H888.174C889.47 254.36 890.713 253.845 891.63 252.929C892.546 252.012 893.061 250.769 893.062 249.473V207.626C893.058 206.331 892.542 205.09 891.626 204.174C890.71 203.258 889.469 202.742 888.174 202.738Z" fill="#5962B7"/>
<path d="M888.174 274.082H846.308C845.015 274.087 843.777 274.604 842.864 275.52C841.951 276.436 841.439 277.677 841.439 278.97V320.817C841.438 321.458 841.562 322.093 841.806 322.685C842.05 323.278 842.408 323.817 842.86 324.271C843.313 324.725 843.85 325.085 844.442 325.331C845.033 325.577 845.668 325.704 846.308 325.705H888.174C889.47 325.704 890.713 325.189 891.63 324.273C892.546 323.356 893.061 322.113 893.062 320.817V278.97C893.058 277.675 892.542 276.434 891.626 275.518C890.71 274.602 889.469 274.086 888.174 274.082Z" fill="#5962B7"/>
<path d="M888.174 345.426H846.308C845.668 345.426 845.033 345.553 844.442 345.8C843.85 346.046 843.313 346.406 842.86 346.86C842.408 347.314 842.05 347.853 841.806 348.445C841.562 349.038 841.438 349.673 841.439 350.314V392.161C841.438 392.801 841.562 393.436 841.806 394.029C842.05 394.622 842.408 395.16 842.86 395.614C843.313 396.068 843.85 396.429 844.442 396.675C845.033 396.921 845.668 397.048 846.308 397.049H888.174C889.47 397.048 890.713 396.533 891.63 395.616C892.546 394.7 893.061 393.457 893.062 392.161V350.314C893.061 349.017 892.546 347.775 891.63 346.858C890.713 345.942 889.47 345.426 888.174 345.426Z" fill="#D9DCE1"/>
<path d="M976.077 60.0547H934.211C932.918 60.0592 931.679 60.5761 930.766 61.4923C929.854 62.4084 929.341 63.649 929.342 64.9422V106.808C929.342 108.099 929.855 109.338 930.768 110.251C931.681 111.164 932.92 111.677 934.211 111.677H976.077C977.37 111.678 978.611 111.165 979.527 110.253C980.443 109.34 980.96 108.101 980.965 106.808V64.9422C980.961 63.6471 980.445 62.4061 979.529 61.4903C978.613 60.5746 977.372 60.0585 976.077 60.0547Z" fill="#D9DCE1"/>
<path d="M976.077 131.395H934.211C932.918 131.399 931.679 131.916 930.766 132.832C929.854 133.748 929.341 134.989 929.342 136.282V178.148C929.342 179.439 929.855 180.678 930.768 181.591C931.681 182.504 932.92 183.017 934.211 183.017H976.077C977.37 183.018 978.611 182.505 979.527 181.593C980.443 180.68 980.96 179.441 980.965 178.148V136.282C980.961 134.987 980.445 133.746 979.529 132.83C978.613 131.914 977.372 131.398 976.077 131.395Z" fill="#D9DCE1"/>
<path d="M976.077 202.738H934.211C932.918 202.743 931.679 203.26 930.766 204.176C929.854 205.092 929.341 206.333 929.342 207.626V249.473C929.34 250.114 929.465 250.749 929.709 251.342C929.952 251.934 930.311 252.473 930.763 252.927C931.215 253.381 931.752 253.741 932.344 253.987C932.936 254.233 933.57 254.36 934.211 254.361H976.077C977.373 254.36 978.616 253.845 979.532 252.929C980.449 252.012 980.964 250.769 980.965 249.473V207.626C980.961 206.331 980.445 205.09 979.529 204.174C978.613 203.258 977.372 202.742 976.077 202.738Z" fill="#5962B7"/>
<path d="M976.077 274.082H934.211C932.918 274.087 931.679 274.604 930.766 275.52C929.854 276.436 929.341 277.677 929.342 278.97V320.817C929.34 321.458 929.465 322.093 929.709 322.685C929.952 323.278 930.311 323.817 930.763 324.271C931.215 324.725 931.752 325.085 932.344 325.331C932.936 325.577 933.57 325.704 934.211 325.705H976.077C977.373 325.704 978.616 325.189 979.532 324.273C980.449 323.356 980.964 322.113 980.965 320.817V278.97C980.961 277.675 980.445 276.434 979.529 275.518C978.613 274.602 977.372 274.086 976.077 274.082Z" fill="#D9DCE1"/>
<path d="M976.077 345.426H934.211C933.57 345.426 932.936 345.553 932.344 345.8C931.752 346.046 931.215 346.406 930.763 346.86C930.311 347.314 929.952 347.853 929.709 348.445C929.465 349.038 929.34 349.673 929.342 350.314V392.161C929.34 392.801 929.465 393.436 929.709 394.029C929.952 394.622 930.311 395.16 930.763 395.614C931.215 396.068 931.752 396.429 932.344 396.675C932.936 396.921 933.57 397.048 934.211 397.049H976.077C977.373 397.048 978.616 396.533 979.532 395.616C980.449 394.7 980.964 393.457 980.965 392.161V350.314C980.964 349.017 980.449 347.775 979.532 346.858C978.616 345.942 977.373 345.426 976.077 345.426Z" fill="#D9DCE1"/>
</g>
<path d="M1408.16 357.212C1407.37 358.732 1406.54 360.226 1405.69 361.711C1373.05 418.582 1297.11 453.902 1169.04 435.208C1096.33 424.09 1065.36 464.873 1035.37 506.647C1034.86 507.368 1034.35 508.089 1033.83 508.81C1002.42 552.616 971.336 596.544 893.6 581.942C811.19 568.912 760.331 501.999 752.46 430.561C752.365 429.692 752.278 428.815 752.2 427.946C747.778 381.63 761.442 333.671 796.301 297.466C817.358 275.601 847.274 263.988 878.155 264.352C887.453 264.526 896.746 263.836 905.917 262.294C907.941 261.938 909.904 261.547 911.815 261.104C951.157 252.113 969.286 225.384 980.404 192.766C980.665 191.993 980.926 191.22 981.178 190.438C1006.71 112.65 994.902 3.46876 1133.7 19.5302C1257.9 28.6858 1349.05 97.553 1393.75 177.009C1394.2 177.808 1394.64 178.607 1395.07 179.406C1407.36 201.453 1416.13 225.284 1421.07 250.037C1421.34 251.427 1421.6 252.817 1421.83 254.206C1428.15 291.107 1424.01 326.974 1408.16 357.212Z" fill="#2C8CC9"/>
<path d="M1395.07 179.405C1386.16 189.996 1376.12 199.581 1365.13 207.993C1322.32 240.828 1268.09 258.636 1214.59 262.371C1187.09 264.304 1159.46 262.427 1132.48 256.794C1105.03 251.043 1078.85 240.915 1053.49 229.084C1028.83 217.574 1004.9 204.596 980.404 192.765C980.665 191.992 980.926 191.219 981.178 190.437C1007.89 203.293 1034.05 217.461 1061.08 229.709C1086.54 241.254 1112.89 250.67 1140.45 255.708C1167.95 260.7 1196.02 261.8 1223.83 258.974C1277.18 253.606 1331.45 233.922 1372.47 198.707C1380.17 192.096 1387.29 184.836 1393.75 177.008C1394.2 177.807 1394.64 178.606 1395.07 179.405Z" fill="white"/>
<path d="M1209.7 0.816437C1209.64 0.816437 1209.58 0.818422 1209.51 0.822399C1143.68 4.94708 1092.11 59.9008 1092.11 125.931C1092.11 191.961 1143.68 246.915 1209.51 251.038C1209.91 251.065 1210.3 251.01 1210.67 250.876C1211.04 250.743 1211.38 250.535 1211.67 250.264C1211.96 249.998 1212.18 249.675 1212.34 249.317C1212.49 248.958 1212.57 248.572 1212.57 248.181V3.67971C1212.57 2.91961 1212.27 2.19124 1211.73 1.65444C1211.19 1.11764 1210.46 0.816246 1209.7 0.816406L1209.7 0.816437Z" fill="#7BE4F4"/>
<path d="M1310.36 209.478C1309.39 209.477 1308.45 209.089 1307.76 208.4L1222.64 123.274C1222.29 122.933 1222.02 122.528 1221.84 122.082C1221.65 121.636 1221.56 121.158 1221.56 120.675V3.67994C1221.56 3.17791 1221.66 2.68091 1221.86 2.22019C1222.06 1.75947 1222.35 1.34501 1222.72 1.00288C1223.09 0.656502 1223.52 0.389434 1224 0.218219C1224.47 0.0470039 1224.98 -0.0247079 1225.48 0.00750529C1291.75 4.15884 1343.66 59.4711 1343.66 125.931C1343.66 156.119 1332.84 185.308 1313.15 208.197C1312.82 208.581 1312.42 208.892 1311.96 209.112C1311.5 209.332 1311.01 209.455 1310.5 209.475C1310.46 209.477 1310.41 209.478 1310.36 209.478Z" fill="#7BE4F4"/>
<path d="M1225.25 251.861C1224.31 251.861 1223.4 251.503 1222.72 250.86C1222.35 250.518 1222.06 250.103 1221.86 249.642C1221.66 249.181 1221.56 248.683 1221.56 248.181V142.62C1221.56 141.893 1221.77 141.183 1222.18 140.579C1222.58 139.974 1223.16 139.503 1223.83 139.225C1224.5 138.947 1225.24 138.874 1225.95 139.016C1226.66 139.158 1227.32 139.508 1227.83 140.021L1302.12 214.304C1302.47 214.658 1302.75 215.079 1302.93 215.543C1303.12 216.007 1303.2 216.503 1303.19 217.002C1303.18 217.501 1303.06 217.993 1302.86 218.446C1302.65 218.9 1302.35 219.306 1301.98 219.641C1280.83 238.681 1253.88 250.031 1225.48 251.854C1225.4 251.859 1225.32 251.861 1225.25 251.861Z" fill="#A9B0F5"/>
<path d="M1421.83 254.205C1409.91 275.339 1393.09 293.981 1373.82 308.756C1331 341.592 1276.77 359.399 1223.27 363.134C1195.78 365.067 1168.15 363.19 1141.17 357.557C1113.72 351.807 1087.54 341.678 1062.18 329.847C1036.36 317.799 1011.34 304.135 985.635 291.861C959.957 279.595 933.567 269.137 905.918 262.292C907.942 261.936 909.905 261.545 911.816 261.102C913.623 261.571 915.424 262.057 917.219 262.561C971.284 277.676 1019 307.462 1069.76 330.473C1095.22 342.017 1121.58 351.433 1149.14 356.472C1176.64 361.464 1204.71 362.564 1232.52 359.738C1285.87 354.369 1340.14 334.686 1381.16 299.47C1397.4 285.593 1410.92 268.832 1421.07 250.035C1421.34 251.425 1421.6 252.815 1421.83 254.205Z" fill="white"/>
<path d="M885.08 439.766C938.346 454.655 985.444 483.79 1035.37 506.644C1034.86 507.365 1034.35 508.086 1033.83 508.807C1032.56 508.225 1031.3 507.643 1030.04 507.052C1004.22 495.004 979.199 481.34 953.495 469.066C927.27 456.54 900.307 445.899 872.015 439.063C832.908 429.643 792.509 426.769 752.462 430.558C752.366 429.69 752.28 428.812 752.201 427.944C796.844 423.73 841.882 427.737 885.08 439.766Z" fill="white"/>
<path d="M1197.48 383.972H1116.88C1115.72 383.972 1114.6 383.511 1113.78 382.689C1112.96 381.868 1112.5 380.754 1112.5 379.592C1112.5 378.43 1112.96 377.316 1113.78 376.494C1114.6 375.673 1115.72 375.211 1116.88 375.211H1197.48C1198.65 375.211 1199.76 375.673 1200.58 376.494C1201.4 377.316 1201.86 378.43 1201.86 379.592C1201.86 380.754 1201.4 381.868 1200.58 382.689C1199.76 383.511 1198.65 383.972 1197.48 383.972Z" fill="#7BE4F4"/>
<path d="M1092.78 388.352C1090.96 388.352 1089.19 387.813 1087.67 386.802C1086.16 385.791 1084.98 384.354 1084.28 382.673C1083.59 380.992 1083.41 379.142 1083.76 377.358C1084.12 375.573 1084.99 373.934 1086.28 372.648C1087.56 371.361 1089.2 370.485 1090.99 370.13C1092.77 369.775 1094.62 369.957 1096.3 370.653C1097.98 371.35 1099.42 372.529 1100.43 374.042C1101.44 375.555 1101.98 377.333 1101.98 379.153C1101.98 381.592 1101.01 383.93 1099.29 385.655C1097.56 387.379 1095.22 388.349 1092.78 388.352Z" fill="#3F3D56"/>
<path d="M1197.48 410.258H1116.88C1115.72 410.258 1114.6 409.796 1113.78 408.975C1112.96 408.153 1112.5 407.039 1112.5 405.877C1112.5 404.715 1112.96 403.601 1113.78 402.779C1114.6 401.958 1115.72 401.496 1116.88 401.496H1197.48C1198.65 401.496 1199.76 401.958 1200.58 402.779C1201.4 403.601 1201.86 404.715 1201.86 405.877C1201.86 407.039 1201.4 408.153 1200.58 408.975C1199.76 409.796 1198.65 410.258 1197.48 410.258Z" fill="#7BE4F4"/>
<path d="M1092.78 414.637C1090.96 414.637 1089.19 414.098 1087.67 413.087C1086.16 412.076 1084.98 410.639 1084.28 408.958C1083.59 407.277 1083.41 405.428 1083.76 403.643C1084.12 401.858 1084.99 400.219 1086.28 398.933C1087.57 397.646 1089.2 396.77 1090.99 396.415C1092.77 396.06 1094.62 396.242 1096.3 396.939C1097.98 397.635 1099.42 398.814 1100.43 400.327C1101.44 401.84 1101.98 403.618 1101.98 405.438C1101.98 407.877 1101.01 410.215 1099.29 411.94C1097.56 413.664 1095.22 414.635 1092.78 414.637Z" fill="#3F3D56"/>
<path d="M1197.48 436.539H1116.88C1115.72 436.539 1114.6 436.077 1113.78 435.256C1112.96 434.434 1112.5 433.32 1112.5 432.158C1112.5 430.996 1112.96 429.882 1113.78 429.06C1114.6 428.239 1115.72 427.777 1116.88 427.777H1197.48C1198.65 427.777 1199.76 428.239 1200.58 429.06C1201.4 429.882 1201.86 430.996 1201.86 432.158C1201.86 433.32 1201.4 434.434 1200.58 435.256C1199.76 436.077 1198.65 436.539 1197.48 436.539Z" fill="#7BE4F4"/>
<path d="M1092.78 440.922C1090.96 440.922 1089.19 440.383 1087.67 439.372C1086.16 438.361 1084.98 436.924 1084.28 435.243C1083.59 433.562 1083.41 431.713 1083.76 429.928C1084.12 428.144 1084.99 426.504 1086.28 425.218C1087.56 423.931 1089.2 423.055 1090.99 422.7C1092.77 422.345 1094.62 422.527 1096.3 423.224C1097.98 423.92 1099.42 425.099 1100.43 426.612C1101.44 428.125 1101.98 429.903 1101.98 431.723C1101.98 434.162 1101.01 436.5 1099.29 438.225C1097.56 439.95 1095.22 440.92 1092.78 440.922Z" fill="#3F3D56"/>
<path d="M1220.64 405.76H1253.94C1254.17 405.76 1254.39 405.667 1254.56 405.503C1254.72 405.339 1254.81 405.116 1254.81 404.884V199.06C1254.81 198.827 1254.72 198.605 1254.56 198.44C1254.39 198.276 1254.17 198.184 1253.94 198.184C1253.7 198.184 1253.48 198.276 1253.32 198.44C1253.15 198.605 1253.06 198.827 1253.06 199.06V404.007H1220.64C1220.53 404.007 1220.41 404.029 1220.31 404.073C1220.2 404.117 1220.1 404.182 1220.02 404.263C1219.94 404.344 1219.87 404.441 1219.83 404.548C1219.79 404.654 1219.76 404.768 1219.76 404.884C1219.76 404.999 1219.79 405.113 1219.83 405.22C1219.87 405.326 1219.94 405.423 1220.02 405.504C1220.1 405.586 1220.2 405.65 1220.31 405.694C1220.41 405.738 1220.53 405.76 1220.64 405.76Z" fill="#3F3D56"/>
<path d="M1363.31 64.533C1361.08 64.7123 1358.85 64.2275 1356.9 63.1398C1354.95 62.052 1353.37 60.4103 1352.35 58.4222C1351.33 56.434 1350.92 54.1888 1351.18 51.9703C1351.44 49.7519 1352.35 47.6599 1353.8 45.9588C1355.25 44.2578 1357.17 43.0242 1359.31 42.414C1361.46 41.8038 1363.74 41.8444 1365.87 42.5307C1368 43.2169 1369.87 44.518 1371.26 46.2694C1372.64 48.0208 1373.48 50.1439 1373.66 52.3701C1373.9 55.3554 1372.94 58.314 1371 60.595C1369.06 62.8759 1366.29 64.2925 1363.31 64.533ZM1363.17 62.8013C1365.05 62.6495 1366.85 61.9426 1368.33 60.7699C1369.81 59.5971 1370.91 58.0113 1371.49 56.2129C1372.07 54.4145 1372.11 52.4842 1371.59 50.6663C1371.08 48.8483 1370.03 47.2243 1368.59 45.9996C1367.15 44.7749 1365.38 44.0045 1363.51 43.7859C1361.63 43.5672 1359.73 43.9101 1358.05 44.7712C1356.36 45.6322 1354.97 46.9728 1354.05 48.6234C1353.13 50.274 1352.72 52.1604 1352.88 54.0442C1352.98 55.2949 1353.32 56.5136 1353.89 57.6306C1354.47 58.7476 1355.25 59.741 1356.21 60.5542C1357.16 61.3674 1358.27 61.9844 1359.46 62.3699C1360.66 62.7555 1361.92 62.9021 1363.17 62.8013V62.8013Z" fill="#CCCCCC"/>
<path d="M1402.19 35.5587C1406.03 35.5587 1409.14 32.4474 1409.14 28.6094C1409.14 24.7714 1406.03 21.6602 1402.19 21.6602C1398.35 21.6602 1395.24 24.7714 1395.24 28.6094C1395.24 32.4474 1398.35 35.5587 1402.19 35.5587Z" fill="#CCCCCC"/>
<path d="M1436.35 10.4257C1438.36 10.4257 1440 8.79142 1440 6.77537C1440 4.75933 1438.36 3.125 1436.35 3.125C1434.33 3.125 1432.7 4.75933 1432.7 6.77537C1432.7 8.79142 1434.33 10.4257 1436.35 10.4257Z" fill="#CCCCCC"/>
<path d="M1310.25 286.807C1309.01 288.67 1307.26 290.127 1305.2 290.992C1303.14 291.857 1300.87 292.093 1298.68 291.668C1296.49 291.244 1294.47 290.179 1292.88 288.608C1291.29 287.036 1290.21 285.03 1289.76 282.842C1289.31 280.653 1289.52 278.382 1290.37 276.314C1291.21 274.246 1292.65 272.475 1294.5 271.225C1296.35 269.974 1298.53 269.301 1300.77 269.289C1303 269.278 1305.19 269.929 1307.05 271.16C1309.55 272.813 1311.28 275.389 1311.88 278.323C1312.48 281.256 1311.89 284.307 1310.25 286.807ZM1292.85 275.314C1291.81 276.891 1291.26 278.741 1291.27 280.631C1291.28 282.521 1291.85 284.365 1292.91 285.931C1293.96 287.497 1295.46 288.714 1297.21 289.428C1298.96 290.142 1300.88 290.322 1302.74 289.944C1304.59 289.565 1306.29 288.646 1307.62 287.303C1308.94 285.96 1309.85 284.253 1310.2 282.397C1310.56 280.542 1310.36 278.622 1309.63 276.88C1308.9 275.137 1307.67 273.651 1306.09 272.61C1303.98 271.215 1301.39 270.717 1298.91 271.224C1296.43 271.731 1294.25 273.202 1292.85 275.314Z" fill="#7BE4F4"/>
<path d="M1323.78 328.336C1327.61 328.336 1330.72 325.225 1330.72 321.387C1330.72 317.549 1327.61 314.438 1323.78 314.438C1319.94 314.438 1316.83 317.549 1316.83 321.387C1316.83 325.225 1319.94 328.336 1323.78 328.336Z" fill="#7BE4F4"/>
<path d="M1343.16 360.641C1345.17 360.641 1346.81 359.006 1346.81 356.99C1346.81 354.974 1345.17 353.34 1343.16 353.34C1341.14 353.34 1339.51 354.974 1339.51 356.99C1339.51 359.006 1341.14 360.641 1343.16 360.641Z" fill="#7BE4F4"/>
<path d="M1029.85 97.146C1028.85 95.1459 1028.48 92.896 1028.76 90.6808C1029.04 88.4656 1029.98 86.3846 1031.45 84.7009C1032.92 83.0172 1034.85 81.8065 1037 81.2219C1039.16 80.6372 1041.44 80.7049 1043.56 81.4164C1045.67 82.1279 1047.53 83.4512 1048.9 85.2189C1050.26 86.9867 1051.07 89.1195 1051.23 91.3478C1051.38 93.576 1050.87 95.7995 1049.76 97.7371C1048.65 99.6747 1046.99 101.239 1044.99 102.233C1042.3 103.563 1039.2 103.774 1036.36 102.82C1033.53 101.866 1031.18 99.8257 1029.85 97.146ZM1048.52 87.8684C1047.68 86.176 1046.35 84.771 1044.71 83.831C1043.07 82.8911 1041.19 82.4585 1039.31 82.5878C1037.42 82.7171 1035.62 83.4027 1034.12 84.5577C1032.62 85.7127 1031.51 87.2854 1030.9 89.0768C1030.3 90.8682 1030.24 92.7978 1030.74 94.6218C1031.23 96.4458 1032.26 98.082 1033.68 99.3238C1035.11 100.565 1036.87 101.357 1038.74 101.598C1040.62 101.839 1042.52 101.519 1044.21 100.678C1046.48 99.5476 1048.21 97.5644 1049.01 95.163C1049.82 92.7617 1049.64 90.1383 1048.52 87.8684Z" fill="#CCCCCC"/>
<path d="M993.145 98.4454C996.983 98.4454 1000.09 95.3341 1000.09 91.4961C1000.09 87.6582 996.983 84.5469 993.145 84.5469C989.307 84.5469 986.195 87.6582 986.195 91.4961C986.195 95.3341 989.307 98.4454 993.145 98.4454Z" fill="#CCCCCC"/>
<path d="M952.619 94.0429C954.635 94.0429 956.269 92.4086 956.269 90.3926C956.269 88.3765 954.635 86.7422 952.619 86.7422C950.603 86.7422 948.969 88.3765 948.969 90.3926C948.969 92.4086 950.603 94.0429 952.619 94.0429Z" fill="#CCCCCC"/>
</g>
<defs>
<filter id="filter0_b_9465_35614" x="-10" y="-10" width="1460" height="560" filterUnits="userSpaceOnUse" color-interpolation-filters="sRGB">
<feFlood flood-opacity="0" result="BackgroundImageFix"/>
<feGaussianBlur in="BackgroundImageFix" stdDeviation="5"/>
<feComposite in2="SourceAlpha" operator="in" result="effect1_backgroundBlur_9465_35614"/>
<feBlend mode="normal" in="SourceGraphic" in2="effect1_backgroundBlur_9465_35614" result="shape"/>
</filter>
<clipPath id="clip0_9465_35614">
<rect width="1440" height="540" fill="white"/>
</clipPath>
</defs>
</svg>
