<svg width="1440" height="540" viewBox="0 0 1440 540" fill="none" xmlns="http://www.w3.org/2000/svg">
<g clip-path="url(#clip0_9465_35518)">
<rect width="1440" height="540" fill="white"/>
<path d="M1495.38 0H0V290.769H1495.38V0Z" fill="white"/>
<path d="M574.127 540L581.456 522.064C588.977 503.936 603.634 468.064 615.205 432C626.777 395.936 635.262 360.064 663.805 324C692.348 287.936 741.333 252.064 706.234 216C671.134 179.936 552.334 144.064 506.049 108C459.763 71.9357 485.992 36.0643 499.299 17.9357L512.413 0H2097.69V17.9357C2097.69 36.0643 2097.69 71.9357 2097.69 108C2097.69 144.064 2097.69 179.936 2097.69 216C2097.69 252.064 2097.69 287.936 2097.69 324C2097.69 360.064 2097.69 395.936 2097.69 432C2097.69 468.064 2097.69 503.936 2097.69 522.064V540H574.127Z" fill="#D26743"/>
<path d="M865.461 540L863.533 522.064C861.605 503.936 857.748 468.064 870.282 432C882.817 395.936 911.742 360.064 886.095 324C860.255 287.936 780.035 252.064 769.621 216C759.401 179.936 819.181 144.064 851.384 108C883.395 71.9357 888.023 36.0643 890.145 17.9357L892.459 0H2097.69V17.9357C2097.69 36.0643 2097.69 71.9357 2097.69 108C2097.69 144.064 2097.69 179.936 2097.69 216C2097.69 252.064 2097.69 287.936 2097.69 324C2097.69 360.064 2097.69 395.936 2097.69 432C2097.69 468.064 2097.69 503.936 2097.69 522.064V540H865.461Z" fill="#D25F4F"/>
<path d="M827.654 540L835.761 522.064C843.675 503.936 859.888 468.064 902.93 432C945.972 395.936 1016.23 360.064 1055.03 324C1094.01 287.936 1101.74 252.064 1098.26 216C1094.59 179.936 1079.92 144.064 1062.75 108C1045.76 71.9357 1026.46 36.0643 1016.81 17.9357L1007.16 0H2097.69V17.9357C2097.69 36.0643 2097.69 71.9357 2097.69 108C2097.69 144.064 2097.69 179.936 2097.69 216C2097.69 252.064 2097.69 287.936 2097.69 324C2097.69 360.064 2097.69 395.936 2097.69 432C2097.69 468.064 2097.69 503.936 2097.69 522.064V540H827.654Z" fill="#D0595A"/>
<path d="M1072.83 540L1053.53 522.064C1034.23 503.936 995.632 468.064 1013.97 432C1032.3 395.936 1107.58 360.064 1164.9 324C1222.03 287.936 1261.4 252.064 1232.06 216C1202.73 179.936 1105.07 144.064 1044.46 108C984.052 71.9357 960.891 36.0643 949.311 17.9357L937.73 0H2097.69V17.9357C2097.69 36.0643 2097.69 71.9357 2097.69 108C2097.69 144.064 2097.69 179.936 2097.69 216C2097.69 252.064 2097.69 287.936 2097.69 324C2097.69 360.064 2097.69 395.936 2097.69 432C2097.69 468.064 2097.69 503.936 2097.69 522.064V540H1072.83Z" fill="#CC5565"/>
<path d="M1320.01 540L1313.64 522.064C1307.08 503.936 1294.34 468.064 1316.15 432C1337.96 395.936 1394.69 360.064 1406.46 324C1418.43 287.936 1385.62 252.064 1331.2 216C1276.98 179.936 1200.94 144.064 1203.65 108C1206.15 71.9357 1287.2 36.0643 1327.73 17.9357L1368.25 0H2097.69V17.9357C2097.69 36.0643 2097.69 71.9357 2097.69 108C2097.69 144.064 2097.69 179.936 2097.69 216C2097.69 252.064 2097.69 287.936 2097.69 324C2097.69 360.064 2097.69 395.936 2097.69 432C2097.69 468.064 2097.69 503.936 2097.69 522.064V540H1320.01Z" fill="#C55270"/>
<path d="M1352.18 540L1351.22 522.064C1350.25 503.936 1348.33 468.064 1347.94 432C1347.75 395.936 1348.91 360.064 1356.61 324C1364.32 287.936 1378.57 252.064 1403.23 216C1427.89 179.936 1463.33 144.064 1486.64 108C1510.14 71.9357 1521.7 36.0643 1527.48 17.9357L1533.26 0H2097.69V17.9357C2097.69 36.0643 2097.69 71.9357 2097.69 108C2097.69 144.064 2097.69 179.936 2097.69 216C2097.69 252.064 2097.69 287.936 2097.69 324C2097.69 360.064 2097.69 395.936 2097.69 432C2097.69 468.064 2097.69 503.936 2097.69 522.064V540H1352.18Z" fill="#BC517A"/>
</g>
<defs>
<clipPath id="clip0_9465_35518">
<rect width="1440" height="540" fill="white"/>
</clipPath>
</defs>
</svg>
