<svg width="1440" height="540" viewBox="0 0 1440 540" fill="none" xmlns="http://www.w3.org/2000/svg">
<rect width="1440" height="540" fill="white"/>
<path d="M1440 0H0V279.004H1440V0Z" fill="white"/>
<path d="M0 181.352L48 175.673C96 170.093 192 158.733 288 151.758C384 144.783 480 142.192 576 152.256C672 162.42 768 185.338 864 184.043C960 182.648 1056 157.139 1152 149.765C1248 142.491 1344 153.452 1392 158.932L1440 164.413V0H1392C1344 0 1248 0 1152 0C1056 0 960 0 864 0C768 0 672 0 576 0C480 0 384 0 288 0C192 0 96 0 48 0H0V181.352Z" fill="#975590"/>
<path d="M0 147.473L48 140.996C96 134.52 192 121.566 288 121.865C384 122.263 480 135.815 576 134.021C672 132.228 768 114.89 864 108.911C960 102.932 1056 108.313 1152 114.591C1248 120.868 1344 128.242 1392 131.829L1440 135.516V0H1392C1344 0 1248 0 1152 0C1056 0 960 0 864 0C768 0 672 0 576 0C480 0 384 0 288 0C192 0 96 0 48 0H0V147.473Z" fill="#B5548E"/>
<path d="M0 94.6619L48 92.669C96 90.6762 192 86.6904 288 81.4092C384 76.0285 480 69.452 576 74.5338C672 79.7153 768 96.6548 864 99.4448C960 102.335 1056 90.9751 1152 84.6975C1248 78.4199 1344 77.0249 1392 76.427L1440 75.7295V0H1392C1344 0 1248 0 1152 0C1056 0 960 0 864 0C768 0 672 0 576 0C480 0 384 0 288 0C192 0 96 0 48 0H0V94.6619Z" fill="#C15151"/>
<path d="M0 35.8719L48 33.879C96 31.8861 192 27.9004 288 27.4021C384 26.9039 480 29.8932 576 34.5765C672 39.1601 768 45.5374 864 50.3203C960 55.1032 1056 58.4911 1152 57.0961C1248 55.8007 1344 49.8221 1392 46.8327L1440 43.8434V0H1392C1344 0 1248 0 1152 0C1056 0 960 0 864 0C768 0 672 0 576 0C480 0 384 0 288 0C192 0 96 0 48 0H0V35.8719Z" fill="#D26743"/>
</svg>
