<?xml version="1.0" encoding="UTF-8" standalone="no"?>
<!-- Created with Keyshape -->
<svg xmlns="http://www.w3.org/2000/svg" width="300" height="183" viewBox="0 0 300 183" fill="none">
    <defs>
        <clipPath id="clip0_2192_141469">
            <rect width="300" height="183" fill="white" transform="translate(150,91.5) translate(-150,-91.5)"/>
        </clipPath>
    </defs>
    <style>
@keyframes a0_t { 0% { transform: translate(154px,106px) rotate(0deg) translate(-4px,-46px); } 100% { transform: translate(154px,106px) rotate(360deg) translate(-4px,-46px); } }
    </style>
    <g clip-path="url(#clip0_2192_141469)" transform="translate(150,91.501) translate(-150,-91.501)">
        <path d="M24.8357,40.0552C33.3741,40.0552,40.2959,33.1334,40.2959,24.595C40.2959,16.0566,33.3741,9.13477,24.8357,9.13477C16.2973,9.13477,9.37549,16.0565,9.37549,24.595C9.37549,33.1335,16.2973,40.0552,24.8357,40.0552Z" fill="#B0F3FE" transform="translate(24.8357,24.595) translate(-24.8357,-24.595)"/>
        <path d="M149.226,182.381C231.641,182.381,298.451,179.672,298.451,176.331C298.451,172.99,231.641,170.281,149.226,170.281C66.8106,170.281,0,172.99,0,176.331C0,179.672,66.8106,182.381,149.226,182.381Z" fill="#EBFDFF" transform="translate(149.225,176.331) translate(-149.225,-176.331)"/>
        <path d="M37.9783,100.513C58.9532,100.513,75.9567,83.5099,75.9567,62.535C75.9567,41.5601,58.9532,24.5566,37.9783,24.5566C17.0035,24.5566,0,41.5601,0,62.535C0,83.5099,17.0035,100.513,37.9783,100.513Z" fill="#7BE4F4" transform="translate(37.9783,62.5348) translate(-37.9783,-62.5348)"/>
        <path d="M41.6391,176.929L33.8604,176.929L37.4065,56.8164L41.6391,176.929Z" fill="#2C8CC9" transform="translate(37.7498,116.873) translate(-37.7498,-116.873)"/>
        <path d="M38.0924,79.5808L46.4433,68.0273L37.9782,82.4406L37.063,80.8392L38.0924,79.5808Z" fill="#2C8CC9" transform="translate(41.7532,75.234) translate(-41.7532,-75.234)"/>
        <path d="M37.1777,91.2488L28.8271,79.6953L37.2923,94.1086L38.2075,92.5071L37.1777,91.2488Z" fill="#2C8CC9" transform="translate(33.5173,86.9019) translate(-33.5173,-86.9019)"/>
        <path d="M278.117,177.054L270.339,177.054L273.885,56.9414L278.117,177.054Z" fill="#2C8CC9" transform="translate(274.228,116.998) translate(-274.228,-116.998)"/>
        <path d="M274.571,79.7058L282.922,68.1523L274.457,82.5656L273.542,80.9642L274.571,79.7058Z" fill="#2C8CC9" transform="translate(278.232,75.3589) translate(-278.232,-75.3589)"/>
        <path d="M273.656,91.3738L265.306,79.8203L273.771,94.2336L274.686,92.6321L273.656,91.3738Z" fill="#2C8CC9" transform="translate(269.996,87.0269) translate(-269.996,-87.0269)"/>
        <path d="M154.285,177.034C193.358,177.034,225.033,145.359,225.033,106.286C225.033,67.2123,193.358,35.5371,154.285,35.5371C115.211,35.5371,83.5361,67.2123,83.5361,106.286C83.5361,145.359,115.211,177.034,154.285,177.034Z" fill="#2C8CC9" transform="translate(154.285,106.286) translate(-154.285,-106.286)"/>
        <path d="M154.285,171.178C190.124,171.178,219.177,142.125,219.177,106.286C219.177,70.4476,190.124,41.3945,154.285,41.3945C118.446,41.3945,89.3931,70.4476,89.3931,106.286C89.3931,142.125,118.446,171.178,154.285,171.178Z" fill="#EBFDFF" transform="translate(154.285,106.286) translate(-154.285,-106.286)"/>
        <path d="M155.925,44.6738L152.176,44.6738L152.176,51.7018L155.925,51.7018L155.925,44.6738Z" fill="#2C8CC9" transform="translate(154.05,48.1878) translate(-154.05,-48.1878)"/>
        <path d="M155.925,161.338L152.176,161.338L152.176,168.366L155.925,168.366L155.925,161.338Z" fill="#2C8CC9" transform="translate(154.05,164.852) translate(-154.05,-164.852)"/>
        <path d="M99.2319,108.395L99.2319,104.646L92.2039,104.646L92.2039,108.395L99.2319,108.395Z" fill="#2C8CC9" transform="translate(95.7179,106.52) translate(-95.7179,-106.52)"/>
        <path d="M215.897,108.395L215.897,104.646L208.869,104.646L208.869,108.395L215.897,108.395Z" fill="#2C8CC9" transform="translate(212.383,106.52) translate(-212.383,-106.52)"/>
        <g transform="translate(154,106) translate(-4,-46)" style="animation: 6s linear infinite both a0_t;">
            <path d="M158,106L150,105.996L154.31,60L158,106Z" fill="#2C8CC9" transform="translate(4,23) translate(-154,-83)"/>
            <path d="M150,106L158,106.004L153.69,152L150,106Z" fill="#EBFDFF" transform="translate(4,69) translate(-154,-129)"/>
        </g>
        <path d="M154,113.999C158.418,113.999,162,110.418,162,105.999C162,101.581,158.418,98,154,98C149.582,98,146,101.581,146,105.999C146,110.418,149.582,113.999,154,113.999Z" fill="#2C8CC9" transform="translate(154,106) translate(-154,-106)"/>
        <path d="M163.421,18.4355L145.148,18.4355L145.148,39.5195L163.421,39.5195L163.421,18.4355Z" fill="#2C8CC9" transform="translate(154.285,28.9775) translate(-154.285,-28.9775)"/>
        <path d="M154.285,24.2934C165.929,24.2934,175.369,21.6713,175.369,18.4367C175.369,15.2022,165.929,12.5801,154.285,12.5801C142.64,12.5801,133.201,15.2022,133.201,18.4367C133.201,21.6712,142.64,24.2934,154.285,24.2934Z" fill="#2C8CC9" transform="translate(154.285,18.4367) translate(-154.285,-18.4367)"/>
        <path d="M298.49,14.7887C298.289,11.2359,296.832,7.86984,294.381,5.29078C291.929,2.71172,288.641,1.08728,285.102,0.707072C281.564,0.326867,278.006,1.21562,275.062,3.21486C272.118,5.2141,269.98,8.19389,269.029,11.623C268.847,11.6164,268.665,11.6091,268.482,11.6091C265.238,11.6097,262.081,12.6607,259.484,14.6047C256.887,16.5488,254.989,19.2815,254.075,22.3939C251.925,21.4494,249.523,21.2445,247.244,21.8113C244.966,22.378,242.94,23.6845,241.483,25.526L288.321,25.526C289.688,25.5299,291.041,25.258,292.3,24.7266C293.559,24.1952,294.697,23.4153,295.648,22.4334C296.598,21.4516,297.341,20.2881,297.831,19.0126C298.321,17.7371,298.549,16.3758,298.5,15.0102C298.497,14.9365,298.494,14.8627,298.49,14.7887Z" fill="#7BE4F4" transform="translate(269.995,13.0736) translate(-269.995,-13.0736)"/>
        <path d="M259.333,46.3885C261.56,46.3885,263.366,44.5828,263.366,42.3554C263.366,40.1279,261.56,38.3223,259.333,38.3223C257.105,38.3223,255.3,40.1279,255.3,42.3554C255.3,44.5828,257.105,46.3885,259.333,46.3885Z" fill="#B0F3FE" transform="translate(259.333,42.3554) translate(-259.333,-42.3554)"/>
        <path d="M271.51,36.2066C273.365,36.2066,274.869,34.7031,274.869,32.8484C274.869,30.9937,273.365,29.4902,271.51,29.4902C269.656,29.4902,268.152,30.9937,268.152,32.8484C268.152,34.7031,269.656,36.2066,271.51,36.2066Z" fill="#B0F3FE" transform="translate(271.511,32.8484) translate(-271.511,-32.8484)"/>
        <path d="M287.901,55.1287C290.128,55.1287,291.934,53.323,291.934,51.0956C291.934,48.8682,290.128,47.0625,287.901,47.0625C285.673,47.0625,283.868,48.8682,283.868,51.0956C283.868,53.323,285.673,55.1287,287.901,55.1287Z" fill="#B0F3FE" transform="translate(287.901,51.0956) translate(-287.901,-51.0956)"/>
        <path d="M257.316,73.6131C259.544,73.6131,261.349,71.8074,261.349,69.58C261.349,67.3526,259.544,65.5469,257.316,65.5469C255.089,65.5469,253.283,67.3526,253.283,69.58C253.283,71.8074,255.089,73.6131,257.316,73.6131Z" fill="#B0F3FE" transform="translate(257.316,69.58) translate(-257.316,-69.58)"/>
        <path d="M287.901,96.8025C290.128,96.8025,291.934,94.9968,291.934,92.7694C291.934,90.542,290.128,88.7363,287.901,88.7363C285.673,88.7363,283.868,90.542,283.868,92.7694C283.868,94.9968,285.673,96.8025,287.901,96.8025Z" fill="#B0F3FE" transform="translate(287.901,92.7694) translate(-287.901,-92.7694)"/>
        <path d="M281.508,170.537C281.51,170.494,281.515,170.451,281.515,170.407C281.516,169.731,281.347,169.066,281.023,168.473C280.7,167.879,280.232,167.377,279.663,167.012C279.095,166.647,278.443,166.431,277.769,166.384C277.095,166.336,276.42,166.46,275.806,166.742C275.23,166.077,274.451,165.619,273.59,165.439C272.729,165.259,271.832,165.366,271.037,165.744C270.243,166.122,269.594,166.75,269.191,167.532C268.788,168.314,268.652,169.207,268.804,170.074C268.784,170.074,268.764,170.071,268.744,170.071C268.101,170.07,267.468,170.222,266.897,170.515C266.326,170.808,265.833,171.233,265.459,171.755C265.085,172.277,264.841,172.881,264.747,173.516C264.654,174.151,264.713,174.799,264.92,175.407C265.128,176.014,265.477,176.564,265.94,177.009C266.402,177.454,266.965,177.783,267.58,177.967C268.195,178.152,268.845,178.186,269.476,178.069C270.107,177.951,270.701,177.685,271.209,177.291C271.529,177.915,272.006,178.444,272.593,178.827C273.18,179.21,273.857,179.433,274.557,179.474C275.257,179.516,275.955,179.374,276.584,179.063C277.212,178.751,277.748,178.282,278.139,177.7C278.619,178.049,279.17,178.288,279.753,178.4C280.336,178.511,280.936,178.492,281.511,178.345C282.086,178.197,282.621,177.925,283.079,177.547C283.536,177.168,283.904,176.694,284.157,176.157C284.409,175.62,284.54,175.033,284.54,174.44C284.54,173.847,284.408,173.26,284.155,172.724C283.902,172.187,283.534,171.712,283.076,171.335C282.619,170.957,282.083,170.684,281.508,170.537Z" fill="#B0F3FE" transform="translate(274.622,172.418) translate(-274.622,-172.418)"/>
        <path d="M291.597,78.3179C292.526,78.3179,293.278,77.5656,293.278,76.6375C293.278,75.7094,292.526,74.957,291.597,74.957C290.669,74.957,289.917,75.7094,289.917,76.6375C289.917,77.5656,290.669,78.3179,291.597,78.3179Z" fill="#B0F3FE" transform="translate(291.597,76.6375) translate(-291.597,-76.6375)"/>
        <path d="M280.843,37.9879C281.771,37.9879,282.523,37.2355,282.523,36.3074C282.523,35.3793,281.771,34.627,280.843,34.627C279.914,34.627,279.162,35.3793,279.162,36.3074C279.162,37.2355,279.914,37.9879,280.843,37.9879Z" fill="#B0F3FE" transform="translate(280.842,36.3075) translate(-280.842,-36.3075)"/>
        <path d="M275.129,79.6617C276.057,79.6617,276.81,78.9093,276.81,77.9812C276.81,77.0531,276.057,76.3008,275.129,76.3008C274.201,76.3008,273.449,77.0531,273.449,77.9812C273.449,78.9093,274.201,79.6617,275.129,79.6617Z" fill="#B0F3FE" transform="translate(275.13,77.9812) translate(-275.13,-77.9812)"/>
        <path d="M276.473,77.982C277.402,77.982,278.154,77.2296,278.154,76.3016C278.154,75.3736,277.402,74.6211,276.473,74.6211C275.545,74.6211,274.793,75.3735,274.793,76.3016C274.793,77.2297,275.545,77.982,276.473,77.982Z" fill="#B0F3FE" transform="translate(276.474,76.3015) translate(-276.474,-76.3015)"/>
        <path d="M277.482,76.3023C278.41,76.3023,279.162,75.55,279.162,74.6219C279.162,73.6938,278.41,72.9414,277.482,72.9414C276.554,72.9414,275.801,73.6938,275.801,74.6219C275.801,75.55,276.554,76.3023,277.482,76.3023Z" fill="#B0F3FE" transform="translate(277.481,74.6218) translate(-277.481,-74.6218)"/>
        <path d="M273.449,90.4176C274.377,90.4176,275.129,89.6652,275.129,88.7371C275.129,87.809,274.377,87.0566,273.449,87.0566C272.521,87.0566,271.769,87.809,271.769,88.7371C271.769,89.6652,272.521,90.4176,273.449,90.4176Z" fill="#B0F3FE" transform="translate(273.449,88.7371) translate(-273.449,-88.7371)"/>
        <path d="M298.32,109.238C299.248,109.238,300,108.486,300,107.557C300,106.629,299.248,105.877,298.32,105.877C297.392,105.877,296.639,106.629,296.639,107.557C296.639,108.486,297.392,109.238,298.32,109.238Z" fill="#B0F3FE" transform="translate(298.32,107.558) translate(-298.32,-107.558)"/>
        <path d="M262.358,110.248C263.286,110.248,264.038,109.495,264.038,108.567C264.038,107.639,263.286,106.887,262.358,106.887C261.43,106.887,260.677,107.639,260.677,108.567C260.677,109.495,261.43,110.248,262.358,110.248Z" fill="#B0F3FE" transform="translate(262.357,108.567) translate(-262.357,-108.567)"/>
        <path d="M264.374,58.4879C265.302,58.4879,266.055,57.7355,266.055,56.8074C266.055,55.8793,265.302,55.127,264.374,55.127C263.446,55.127,262.694,55.8793,262.694,56.8074C262.694,57.7355,263.446,58.4879,264.374,58.4879Z" fill="#B0F3FE" transform="translate(264.375,56.8075) translate(-264.375,-56.8075)"/>
        <path d="M272.104,88.7379C273.032,88.7379,273.785,87.9855,273.785,87.0574C273.785,86.1293,273.032,85.377,272.104,85.377C271.176,85.377,270.424,86.1293,270.424,87.0574C270.424,87.9855,271.176,88.7379,272.104,88.7379Z" fill="#B0F3FE" transform="translate(272.104,87.0575) translate(-272.104,-87.0575)"/>
        <path d="M270.424,86.0484C271.352,86.0484,272.105,85.296,272.105,84.368C272.105,83.44,271.352,82.6875,270.424,82.6875C269.496,82.6875,268.744,83.4399,268.744,84.368C268.744,85.2961,269.496,86.0484,270.424,86.0484Z" fill="#B0F3FE" transform="translate(270.425,84.368) translate(-270.425,-84.368)"/>
    </g>
</svg>
